<?xml version="1.0" encoding="UTF-8" standalone="no"?>
<svg
   width="288.31326"
   height="288.31461"
   version="1.1"
   id="svg16"
   xmlns="http://www.w3.org/2000/svg"
   xmlns:svg="http://www.w3.org/2000/svg">
  <defs
     id="defs8">
    <clipPath
       id="A">
      <path
         d="M 0,595.276 H 841.89 V 0 H 0 Z"
         transform="translate(-9.92,-297.85)"
         id="path1" />
    </clipPath>
    <clipPath
       id="B">
      <path
         d="M 0,595.276 H 841.89 V 0 H 0 Z"
         transform="translate(-203.854,-262.607)"
         id="path2" />
    </clipPath>
  </defs>
  <path
     d="m 0,0 c 0,59.714 48.403,108.118 108.116,108.118 59.713,0 108.119,-48.404 108.119,-108.118 0,-59.714 -48.407,-108.118 -108.119,-108.118 C 48.404,-108.118 0,-59.714 0,0"
     transform="matrix(1.333333,0,0,-1.333333,0,144.1573)"
     clip-path="url(#A)"
     fill="#c8102e"
     id="path9" />
  <path
     d="M 0,0 -35.321,35.243 0,70.485 -32.269,57.233 a 1.58,1.58 0 0 1 -0.191,0.126 c -0.178,0.107 -0.822,0.797 -1.197,0.749 -0.142,-0.016 -0.41,-0.098 -0.626,-0.094 -0.209,0.004 -0.372,0.042 -0.372,0.042 0,0 -0.283,0.147 0.115,0.318 0.121,0.048 0.534,0.113 0.661,0.182 0.127,0.069 0.519,0.224 0.22,0.477 -0.123,0.109 -0.226,0.164 -0.425,0.168 -0.199,0.004 -0.944,-0.159 -2.625,0.473 -1.681,0.632 -7.221,3.299 -6.859,4.586 0.009,0.025 1.139,2.08 1.007,4.502 -0.046,0.482 -0.098,1.603 -0.282,2.194 -0.053,0.213 -0.134,0.571 -0.099,0.713 0.021,0.086 0.082,0.532 0.358,-0.041 0.136,-0.27 0.831,-1.279 1.011,-3.241 l 0.094,-0.659 c 0,0 0.027,-0.481 0.431,0.295 0.208,0.394 0.731,1.472 1.055,2.462 0.314,0.956 0.432,1.831 0.434,1.934 l 0.148,2.568 c 0.04,0.285 0.224,0.726 0.461,0.969 0.111,0.14 0.347,0.601 0.358,0.029 l 0.102,-2.26 c 0.048,-0.249 0.096,-0.484 0.551,-0.934 a 7.08,7.08 0 0 0 0.387,-0.423 h -0.002 c 0.578,-0.663 1.44,-1.77 1.67,-2.266 0.136,-0.249 0.364,-0.538 0.452,-0.628 0.032,-0.057 0.032,-0.163 -0.023,-0.216 -0.055,-0.053 -0.37,-0.722 0.143,-1.051 0.175,-0.129 0.791,-0.441 1.234,-0.502 0.124,-0.035 0.411,-0.113 0.534,-0.184 0.086,-0.075 0.243,-0.222 0.032,-0.218 -0.211,0.004 -1.068,0.04 -1.11,-0.192 l -0.123,-0.942 a 0.46,0.46 0 0 1 0.347,-0.484 c 0.302,-0.115 1.595,-0.454 1.897,-0.552 0.302,-0.098 0.902,-0.266 1.08,-0.197 0.108,0.036 0.305,0.084 0.169,0.515 a 12.45,12.45 0 0 1 -0.496,1.145 c -0.052,0.075 -0.276,0.379 -0.473,0.437 -0.197,0.058 -0.477,0.115 -0.582,0.241 -0.035,0.019 -0.262,0.218 0.111,0.213 0.285,-0.006 0.89,0.021 1.015,0.072 0.088,0.033 0.163,0.1 0.113,0.334 -0.05,0.234 -0.094,0.75 -0.339,0.896 -0.245,0.146 -1.499,0.951 -2.223,2.299 -0.1,0.159 -0.362,0.655 -0.69,1.287 h -0.005 l -2.287,4.033 c -0.247,0.216 -0.838,1.08 -1.445,1.072 -0.479,0.01 -1.243,0.004 -1.682,-0.611 -0.439,-0.615 -2.238,-2.931 -3.282,-3.588 -0.036,-0.071 -0.072,-0.092 -0.262,0.126 -0.195,0.217 -1.928,1.798 -2.175,1.978 -0.247,0.18 -1.228,0.929 -1.461,1.823 -0.05,0.159 -0.05,0.286 -0.245,0.305 -0.195,0.019 -1.867,0.107 -2.687,0.902 -0.176,0.111 -0.371,0.312 -0.371,0.312 0.373,-0.079 0.812,-0.567 2.579,-0.259 0.479,0.044 1.601,0.113 1.972,-0.038 0.142,-0.054 0.441,-0.22 0.69,-0.222 0.143,-0.004 0.394,-0.027 0.601,-0.224 0.212,-0.201 0.595,-0.653 1.112,-0.607 0.215,0.013 0.374,0.153 0.431,0.26 0.017,0.052 0.056,0.159 -0.155,0.356 -0.211,0.197 -0.975,1.103 -1.063,1.195 -0.036,0.035 -0.316,0.307 0.165,0.333 0.481,0.026 1.543,-0.189 1.746,0.129 0.129,0.166 0.203,0.484 0.173,0.725 -0.008,0.069 -0.027,0.134 -0.052,0.182 -0.119,0.232 -0.132,0.41 -0.632,0.42 -0.302,0.007 -1.034,-0.01 -1.882,0.473 l -1.808,1.129 c -0.195,0.171 -0.5,0.318 -0.643,0.376 -0.048,0.109 -0.012,0.185 0.013,0.417 0.025,0.232 0.155,1.957 0.134,2.434 -0.028,0.477 -0.092,0.873 -0.141,0.961 -0.049,0.088 -0.288,0.442 -0.349,-0.025 -0.023,-0.247 -0.268,-1.214 -0.322,-1.457 l -0.409,-1.628 c -0.023,-0.155 -0.062,-0.417 -0.148,-0.432 -0.052,0 -0.176,-0.065 -0.205,0.195 -0.029,0.26 -0.166,1.463 -0.337,1.605 l -0.325,0.302 c -0.178,-0.241 -0.295,-0.986 -0.335,-1.193 l -0.131,-0.762 c -0.005,-0.088 -0.023,-0.193 -0.111,-0.188 -0.088,0.005 -0.26,-0.034 -0.256,0.209 0.004,0.243 -0.008,0.559 -0.178,0.787 -0.17,0.228 -0.489,0.774 -0.575,0.81 -0.086,0.036 -0.45,0.146 -0.521,-0.027 -0.071,-0.173 -0.095,-0.275 -0.095,-0.346 0,-0.071 -0.142,-1.178 0.107,-1.775 0.069,-0.175 0.235,-0.577 0.32,-0.684 0.069,-0.052 0.189,-0.14 0.099,-0.243 -0.048,-0.058 -0.465,-0.733 -0.951,-1.777 h 0.024 c -0.231,-0.544 -0.419,-1.128 -0.455,-1.622 -0.042,-0.471 -0.266,-3.263 1.185,-4.054 0.172,-0.124 1.059,-0.886 1.877,0.194 l 0.321,0.392 c 0,0 0.142,0.188 0.278,-0.074 0.101,-0.157 0.613,-0.636 0.458,-1.538 -0.031,-0.167 -0.066,-0.624 -0.255,-0.938 0,0 -0.709,-0.573 -0.59,-0.751 0.119,-0.178 0.419,-0.737 1.078,-0.973 0.19,-0.072 0.431,-0.27 0.781,-0.049 0.104,0.051 0.211,0.118 0.28,0.065 0.069,-0.053 0.203,-0.23 0.061,-0.383 -0.142,-0.153 -0.467,-0.914 -1.233,-0.954 -0.433,-0.042 -1.199,-0.029 -1.459,-0.009 -0.26,0.02 -0.467,0.078 -0.471,-0.027 -0.004,-0.105 0.107,-0.868 -0.404,-1.312 l -0.923,-1.045 c -0.121,-0.085 -0.301,-0.253 -0.354,-0.305 -0.053,-0.052 -0.14,-0.119 -0.083,0.245 0.058,0.293 0.1,0.693 -0.118,1.235 l -0.749,1.785 c 0.004,0.105 -0.109,0.678 0.178,1.214 0.128,0.327 0.5,0.827 0.571,0.896 0.071,0.069 0.3,0.22 0.3,0.22 0,0 0.088,-0.002 0.069,-0.176 a 1.47,1.47 0 0 0 -0.222,-0.569 2.03,2.03 0 0 1 -0.247,-1.246 c 0.079,-0.559 0.446,-1.469 0.561,-1.664 l 0.274,-0.423 c 0,0 0.096,-0.242 0.243,0.136 0.109,0.293 0.301,0.377 0.23,1.143 -0.061,0.469 -0.243,1.064 -0.329,1.223 -0.083,0.127 -0.115,0.349 -0.115,0.349 0,0 0.002,0.124 0.191,-0.071 0.189,-0.195 1.166,-1.047 1.911,-1.095 0.331,-0.004 0.521,0.025 0.626,0.078 0.105,0.053 0.226,0.083 0.023,0.243 -0.203,0.16 -0.498,0.512 -0.821,0.778 -0.323,0.266 -0.582,0.672 -1.203,0.804 -0.086,0.021 -0.189,0.123 0.106,0.224 0.128,0.042 0.367,0.144 0.614,0.284 h 0.004 c 0.331,0.199 0.672,0.459 0.774,0.735 0.09,0.222 0.151,0.519 0.099,0.674 -0.051,0.107 -0.118,0.314 -0.413,0.147 -0.14,-0.086 -0.445,-0.513 -1.243,-0.341 -0.239,0.054 -1.75,0.117 -2.371,2.543 -0.061,0.301 -0.356,1.873 0.445,4.244 l 0.103,0.3 0.511,1.329 c 0.037,0.104 0.094,0.328 -0.063,0.471 -0.157,0.143 -0.304,0.353 -0.373,0.389 -0.069,0.036 -0.849,0.239 -1.322,0.038 -0.473,-0.201 -0.909,-0.398 -1.152,-0.379 -0.243,0.019 -0.783,0.153 -0.885,0.155 -0.102,0.002 -0.348,0.006 -0.316,-0.168 0.033,-0.159 0.247,-0.839 1.166,-1.048 0.207,-0.036 0.986,-0.136 1.526,-0.059 0.14,-0.002 0.332,0.046 0.188,-0.09 -0.138,-0.136 -0.354,-0.462 -1.296,-0.743 l -0.546,-0.195 c -0.266,-0.106 -0.555,-0.249 -0.716,-0.408 -0.071,-0.083 -0.178,-0.205 -0.318,-0.236 -0.14,-0.031 -0.875,-0.264 -1.067,-0.348 -0.103,-0.052 -0.21,-0.119 -0.003,-0.314 0.084,-0.071 0.444,-0.318 0.633,-0.512 a 0.77,0.77 0 0 1 1.203,0.1 c 0.159,0.205 0.356,0.687 0.519,0.86 0.157,0.168 0.354,0.325 0.492,0.32 0.084,-0.004 0.205,-0.039 0.082,-0.159 -0.123,-0.12 -0.568,-0.77 -0.695,-1.011 -0.127,-0.241 -0.999,-1.408 -1.313,-1.561 -0.159,-0.1 -0.667,-0.442 -1,-0.383 -0.191,0.004 -0.414,0.059 -0.366,-0.132 0.065,-0.176 0.265,-0.63 0.561,-0.703 0.296,-0.073 0.569,-0.341 1.345,0.498 l 0.622,0.613 c 0.069,0.084 0.352,0.237 0.243,-0.023 -0.092,-0.224 -0.54,-1.032 -0.806,-1.287 -0.266,-0.255 -1.589,-1.467 -1.725,-2.3 -0.048,-0.295 -0.083,-0.693 -0.046,-1.011 l 0.517,-0.005 1.2,1.091 c 0.194,0.172 0.454,0.201 0.678,0.963 0.054,0.188 0.207,1.074 0.421,1.258 0.14,0.121 0.353,0.412 0.347,-0.002 0.013,-0.159 0.004,-0.802 -0.211,-1.181 -0.215,-0.379 -1.177,-1.733 -1.443,-2.007 l -0.111,-0.122 a 3.47,3.47 0 0 1 -0.801,-2.331 c -0.279,-0.048 -4.592,-1.189 -5.557,-1.641 -0.965,-0.452 -2.964,-1.599 -3.701,-2.891 -0.086,-0.1 -0.421,-0.356 -0.475,-0.51 l -0.257,-0.62 -0.005,-0.023 -0.632,-1.587 c -0.071,-0.154 -0.324,-0.638 -0.638,-0.736 -0.314,-0.098 -0.821,-0.226 -1.091,0.144 -0.138,0.174 -0.508,0.754 -0.025,1.666 l 0.283,0.53 h 0.006 c 0.523,0.933 1.287,2.181 1.804,2.721 0.354,0.374 1.059,1.145 1.426,1.21 0.367,0.065 2.225,0.062 3.183,1.124 0.249,0.274 0.62,0.512 0.681,1.031 0.018,0.12 0.006,0.417 -0.189,0.229 -0.088,-0.086 -0.527,-0.39 -1.103,-0.381 -0.571,0.01 -1.197,0.039 -1.442,-0.166 -0.251,-0.203 -0.373,-0.391 -0.46,-0.425 -0.087,-0.034 -0.369,-0.079 -0.153,0.212 0.159,0.224 0.414,0.827 1.565,1.17 0.316,0.081 2.372,0.412 2.937,0.837 0.228,0.17 0.387,0.26 0.559,0.437 h 0.023 c 0.148,0.164 0.251,0.4 0.379,0.951 0.002,0.107 0.077,0.295 -0.099,0.264 -0.176,-0.031 -0.904,-0.036 -1.099,-0.208 l -0.996,-0.896 -0.395,-0.295 -0.474,-0.148 c 0,0 -0.295,0.006 0.021,0.314 l 0.023,0.018 h 0.003 c 0.431,0.419 3.369,3.31 3.376,5.57 -0.007,0.335 0.096,1.675 -0.565,2.495 l -0.62,0.308 c -0.312,0.161 -1.227,0.525 -2.313,-0.029 -0.102,-0.034 -0.58,-0.306 -0.944,-0.212 -0.274,0.071 -0.714,0.274 -1.214,-0.063 h -0.025 c -0.199,-0.173 -0.335,-0.316 -0.473,-0.515 -0.107,-0.171 -0.844,-1.636 -1.005,-1.841 -0.161,-0.205 -0.376,-0.603 -0.759,-0.716 -0.107,-0.034 -0.367,-0.149 -0.147,-0.26 0.226,-0.107 0.5,-0.305 1.484,0.218 l 0.666,0.337 c 0.121,0.067 0.226,0.048 0.121,-0.057 -0.105,-0.105 -0.957,-0.939 -1.105,-1.561 -0.075,-0.312 -0.371,-1.227 0.153,-2.261 0.136,-0.211 0.23,-0.649 0.772,-0.659 0.084,-0.017 0.067,0.052 0.002,0.211 -0.065,0.159 -0.46,1.572 -0.136,2.209 0.111,0.24 0.538,0.979 0.749,1.063 0.088,0.069 0.402,0.186 0.293,-0.126 -0.109,-0.312 -0.404,-1.122 -0.358,-1.609 0.011,-0.295 0.141,-0.94 0.674,-1.105 0.105,-0.04 0.365,-0.182 0.199,0.291 -0.1,0.207 -0.249,0.665 0.094,1.456 0.147,0.327 0.951,1.754 0.959,2.332 -0.008,0.467 -0.077,1.423 0.429,1.469 0.172,0.03 0.781,0.09 1.032,-0.573 0.082,-0.264 0.444,-1.434 -0.111,-2.397 -0.125,-0.207 -1.823,-2.855 -3.15,-3.96 l -0.012,-0.015 c -0.31,-0.288 -4.178,-4.451 -4.697,-5.205 -0.369,-0.527 -1.12,-1.584 -1.66,-2.683 l -0.002,-0.005 -0.051,-0.104 h 0.003 c -0.25,-0.536 -0.417,-0.99 -0.503,-1.411 -0.054,-0.19 -0.201,-0.638 0.172,-1.203 0.1,-0.159 0.372,-0.545 0.347,-0.873 -0.021,-0.071 0.08,-0.421 -0.194,-0.379 -0.274,0.042 -1.474,0.301 -1.947,-0.854 -0.071,-0.138 -0.695,-1.796 -0.904,-2.001 -0.209,-0.205 -0.482,-0.528 -0.76,-0.576 -0.172,-0.014 -0.4,-0.01 -0.331,-0.186 0.042,-0.123 0.201,-0.448 0.559,-0.509 h 0.027 c 0.044,-0.006 0.088,-0.01 0.136,-0.008 l 0.199,0.011 h -0.132 0.132 c 0.524,0.043 1.394,0.23 2.213,1.737 0.284,0.414 1.069,1.53 1.364,1.54 l 0.505,0.009 c 0.071,-0.017 0.31,-0.038 0.048,-0.208 -0.262,-0.17 -1.375,-1.193 -1.356,-2.082 0.006,-0.109 0.027,-0.59 0.259,-1.003 h 0.002 c 0.166,-0.289 0.434,-0.542 0.873,-0.613 0.174,-0.038 0.869,-0.069 0.963,0.347 0.019,0.072 0.059,0.162 0.046,0.279 h -0.004 c -0.011,0.113 -0.065,0.241 -0.222,0.4 -0.121,0.127 -0.507,0.879 0.197,1.387 l 1.41,1.108 c 0.065,0.048 0.164,0.131 0.262,0.226 l 0.069,0.073 c 0.142,0.136 0.22,0.224 0.274,0.368 0.036,0.084 0.074,0.224 0.155,-0.037 0.065,-0.157 0.436,-0.894 1.451,-1.468 0.243,-0.142 0.791,-0.571 0.998,-0.678 0.119,-0.071 0.427,-0.218 0.117,-0.195 -0.31,0.023 -1.044,-0.016 -1.816,0.501 l -0.448,0.253 c -0.053,0.036 -0.136,0.142 -0.243,-0.015 -0.065,-0.094 -0.636,-1.088 -1.126,-1.929 h -0.002 l -0.699,-1.168 c -0.216,-0.291 -1.062,-1.076 -1.97,-1.353 a 10.57,10.57 0 0 1 -1.419,-0.64 c -0.159,-0.098 -0.212,-0.151 -0.199,-0.427 0.013,-0.276 0.069,-1.97 -0.029,-2.644 l -0.672,-4.085 c -0.132,-0.482 -0.302,-1.064 -0.555,-1.398 -0.253,-0.334 -0.642,-0.932 -0.596,-1.394 0.029,-0.358 0.111,-0.823 0.575,-0.829 0.23,0.014 0.641,0.203 0.892,0.23 0.249,0.033 0.429,0.086 0.519,0.046 0.09,-0.04 0.209,-0.09 0.031,-0.159 -0.125,-0.052 -0.703,-0.557 -0.749,-1.145 -0.002,-0.153 -0.025,-0.511 0.077,-0.971 l -12.661,-5.199 35.244,85.814 -35.244,-35.323 -35.241,35.323 35.241,-85.814 -10.291,4.225 0.144,-0.002 c 0.027,0.115 0.105,0.63 -0.155,1.022 l -0.814,1.166 c -0.1,0.161 -0.301,0.531 -0.318,0.952 -0.006,0.186 -0.023,0.588 -0.113,0.726 -0.09,0.138 -0.281,0.406 -0.276,0.547 0,0.136 -0.088,0.378 0.198,0.224 0.113,-0.059 1.591,-0.704 1.905,-1.03 0.138,-0.12 0.433,-0.331 0.58,-0.515 0.067,-0.094 0.132,-0.255 0.19,-0.291 0.046,-0.038 0.178,-0.186 0.176,0.136 -0.008,0.32 0.08,0.791 -0.416,1.212 -0.149,0.14 -1.304,0.984 -2.07,1.193 -0.122,0.059 -0.852,0.416 -0.599,0.469 0.149,0.021 0.622,0.025 0.963,-0.122 0.127,-0.035 1.025,-0.408 1.557,-0.083 0.301,0.155 0.615,0.335 0.781,0.642 0.058,0.113 0.169,0.444 -0.03,0.379 -0.199,-0.065 -1.063,-0.521 -1.316,-0.542 -0.253,-0.015 -0.894,-0.088 -1.158,-0.021 -0.125,0.036 -0.276,0.071 -0.018,0.216 0.117,0.056 0.933,0.395 1.138,0.877 0.048,0.113 0.12,0.236 0.122,0.42 0,0.128 -0.072,0.471 -0.258,0.235 -0.035,-0.059 -0.439,-0.741 -0.877,-0.802 -0.438,-0.061 -1.287,-0.228 -2.036,0.266 -0.069,0.048 -0.58,0.272 -0.107,0.356 0.092,0.023 0.515,-0.019 0.678,0.15 l 0.159,0.162 0.448,0.494 c 0.036,0.09 0.193,0.339 -0.103,0.481 -0.296,0.142 -1.749,1.12 -2.017,1.484 -0.113,0.149 -0.39,0.626 -0.572,0.733 -0.182,0.107 -0.412,0.165 -1.032,0.152 -0.62,-0.013 -1.193,-0.033 -1.442,0.12 -0.069,0.035 -0.49,0.259 -0.042,0.253 0.208,-0.006 1.388,-0.071 1.888,0.241 0.185,0.09 0.658,0.265 0.982,0.579 0.094,0.07 0.314,0.283 0.347,0.03 0.019,-0.117 0.067,-0.727 0.758,-1.197 0.216,-0.153 1.34,-0.756 1.658,-0.921 0.318,-0.17 1.057,-0.536 1.233,-0.963 0.046,-0.082 0.155,-0.36 0.224,-0.419 0.046,-0.033 0.132,-0.207 0.196,0.182 0.028,0.172 0.174,0.651 0.13,0.881 -0.044,0.23 -0.157,0.737 -0.586,1.158 l -0.337,0.36 c -0.046,0.035 -0.182,0.153 0.126,0.146 0.308,-0.007 0.996,-0.131 1.567,0.377 0.139,0.111 0.419,0.256 0.463,0.85 0.004,0.23 -0.019,0.827 -0.174,1.16 -0.056,0.117 -0.165,0.429 -0.295,0.133 -0.037,-0.081 -0.339,-0.866 -0.653,-1.113 -0.102,-0.113 -0.651,-0.641 -1.09,-0.762 -0.138,-0.031 -0.748,-0.203 -0.411,0.18 0.13,0.136 0.888,0.959 0.921,1.442 0.019,0.312 0.059,1.11 -0.111,1.941 l -0.002,0.006 c -0.09,0.448 -0.242,0.91 -0.496,1.31 -0.065,0.132 -0.628,1.568 -2.922,3.684 l -0.257,0.236 -5.526,4.773 h -0.002 a 0.43,0.43 0 0 1 -0.031,0.027 c -0.178,0.186 -2.602,2.087 -2.531,3.485 0,0.213 0.065,1.017 0.582,1.13 0.082,0.021 0.779,0.251 0.862,-0.289 0.011,-0.06 -0.09,-0.559 0.365,-1.172 0.048,-0.063 0.648,-0.871 1.272,-1.463 0.088,-0.117 0.348,-0.301 0.419,-0.856 0.016,-0.092 0.169,-0.699 0.353,0.002 0.053,0.182 0.277,0.833 -0.012,1.534 -0.082,0.161 -0.247,0.509 -0.262,0.672 -0.006,0.101 -0.104,0.331 0.195,0.166 0.079,-0.053 0.609,-0.302 0.67,-0.777 0.01,-0.061 -0.027,-0.597 0.215,-1.172 0.061,-0.182 0.622,-1.287 0.622,-1.287 l 0.53,-0.821 c 0.125,-0.194 0.313,-0.5 0.341,-0.613 0.028,-0.113 0.119,-0.76 0.425,0.002 0.073,0.222 0.418,0.768 0.452,1.172 0.006,0.082 0.023,0.168 0.037,0.26 h 0.002 c 0.059,0.362 0.105,0.787 -0.334,1.26 l -1.644,1.762 c -0.058,0.09 -0.244,0.475 -0.104,0.385 0.14,-0.09 1.201,-1.069 2.001,-0.944 0.192,-0.004 0.473,-0.014 0.668,0.153 0.062,0.04 0.223,0.226 -0.026,0.211 -0.09,-0.01 -0.477,0.019 -0.851,0.337 -0.374,0.318 -1.51,1.436 -1.853,1.926 -0.157,0.205 -0.341,0.754 -1.174,0.85 -0.153,0.023 -0.708,0.071 -0.785,0.063 -0.046,-0.005 -0.123,-0.019 -0.276,0.012 0,0 -0.293,0.088 -0.459,0.193 -0.159,0.102 -0.554,0.425 -1.142,0.425 -0.528,0 -1.317,0.067 -2.004,-0.603 v -0.002 l -0.219,-0.247 c -0.113,-0.157 -0.689,-0.714 -0.739,-1.924 -0.017,-0.431 -0.105,-1.406 0.944,-2.535 0.153,-0.123 1.017,-0.837 1.814,-1.322 h 0.003 l 0.404,-0.229 c 0.159,-0.102 0.659,-0.514 0.805,-0.78 0.028,-0.042 0.174,-0.287 -0.085,-0.111 -0.118,0.081 -1.099,0.862 -2.161,1.111 0,0 -0.395,0.076 -0.59,0.076 -0.171,0.004 -1.161,0.06 -1.3,-0.017 -0.033,-0.023 -0.052,-0.031 -0.056,-0.05 h 0.002 c -0.004,-0.021 0.008,-0.057 0.05,-0.13 0.078,-0.153 0.143,-0.417 0.561,-0.729 0.418,-0.312 0.685,-0.615 2.246,-0.835 0.23,-0.033 1.419,-0.113 2.227,-0.502 0.172,-0.073 0.854,-0.297 0.913,-0.469 0.019,-0.05 0.096,-0.236 -0.134,-0.138 -0.111,0.061 -0.542,0.291 -0.925,0.297 -0.383,0.006 -1.643,-0.031 -1.813,0.011 -0.17,0.042 -0.421,0.201 -0.266,-0.076 0.155,-0.277 0.526,-1.138 1.794,-1.352 0.36,-0.044 2.497,-0.194 3.033,-0.657 l 0.498,-0.423 c 0.94,-0.804 2.723,-2.403 3.364,-3.809 l 0.527,-1.195 h 0.002 c 0.241,-0.584 0.44,-1.2 0.379,-1.543 -0.023,-0.071 -0.119,-0.977 -0.32,-1.063 -0.201,-0.086 -0.44,-0.224 -0.501,0.291 -0.029,0.249 -0.713,2.043 -0.812,2.319 -0.099,0.276 -0.492,0.956 -0.749,1.224 -0.714,0.752 -2.422,2.541 -4.977,3.776 h 0.002 l -0.323,0.153 c -0.33,0.146 -4.728,2.252 -6.101,3.512 l -1.116,1.086 c -0.067,0.078 -0.136,0.189 -0.207,0.243 v 0.009 c -0.054,0.033 -0.113,0.05 -0.173,0 h -0.003 c -0.041,-0.034 -0.083,-0.092 -0.131,-0.189 -0.055,-0.157 -0.348,-1.113 -0.679,-1.433 -0.071,-0.084 -0.213,-0.43 -0.307,0.159 -0.082,0.274 -0.423,1.069 -0.683,1.458 0,0 -0.09,0.132 -0.131,0.172 -0.084,0.071 -0.187,0.211 -0.258,-0.012 l -0.054,-0.155 c -0.153,-0.436 -0.503,-1.57 -0.153,-2.836 0.033,-0.036 0.015,-0.239 -0.26,-0.03 -0.136,0.105 -0.933,0.601 -1.134,1.103 -0.14,0.295 -0.381,1.055 -0.31,1.763 h 0.002 c 0.002,0.042 0.009,0.079 0.017,0.119 0.035,0.067 0.054,0.224 0.203,-0.057 0.013,-0.02 0.025,-0.043 0.04,-0.071 h 0.002 l 0.511,-0.916 c 0.048,-0.072 0.148,-0.365 0.278,0.184 l 0.159,0.732 v 0.009 c 0.054,0.372 0.077,0.883 0.006,1.766 -0.012,0.329 -0.098,1.38 -0.006,1.758 0.038,0.168 0.096,0.549 0.172,-0.006 0.064,-0.241 0.485,-1.745 1.188,-2.79 l 0.505,-0.726 v -0.002 l 0.036,-0.057 c 0.029,-0.061 0.131,-0.308 0.249,0.057 0.01,0.027 0.018,0.06 0.029,0.096 0.088,0.291 0.324,0.94 0.13,1.683 -0.046,0.276 -0.785,2.2 -0.727,2.731 0.042,0.308 0.101,0.756 0.26,1.059 0.054,0.105 0.197,0.465 0.207,-0.054 0.025,-0.343 0.272,-2.102 0.844,-2.989 0.165,-0.245 0.674,-0.701 0.774,-0.772 0.105,-0.069 0.205,-0.243 0.318,0.324 0.113,0.567 0.295,1.181 -0.291,2.169 -0.134,0.236 -0.646,0.828 -0.806,1.785 h -0.002 l -0.037,0.337 c -0.007,0.247 0.006,0.439 0.123,0.661 0.078,-0.115 0.119,-0.502 0.366,-1.002 h -0.008 c 0.159,-0.325 0.408,-0.701 0.818,-1.07 0.132,-0.128 0.564,-0.494 0.775,-0.611 0.1,-0.044 0.285,-0.262 0.306,0.153 0.025,0.224 0.18,0.837 -0.245,1.408 l -0.107,0.124 h -0.002 c -0.214,0.241 -0.576,0.659 -0.67,0.921 -0.117,0.329 -0.358,0.77 -0.387,1.061 -0.009,0.113 -0.101,0.563 0.228,0.155 0.142,-0.149 1.005,-0.95 1.448,-1.252 l 0.754,-0.538 c 0.088,-0.081 0.366,-0.366 0.318,0.164 -0.017,0.291 -0.029,0.942 -0.402,1.408 l -1.279,1.415 c -0.207,0.149 -0.651,0.526 -0.383,0.467 0.268,-0.059 0.881,-0.32 1.135,-0.515 0.254,-0.195 0.653,-0.55 1.253,-0.324 0.168,0.075 0.656,0.224 0.31,0.5 a 17.91,17.91 0 0 0 -1.524,1.417 c -0.1,0.113 -0.36,0.613 -0.722,0.395 -0.079,-0.054 -0.341,-0.276 -0.464,-0.272 -0.123,0.004 -0.36,-0.006 -0.118,0.314 0.101,0.132 0.75,0.572 0.88,0.94 0.13,0.368 0.27,0.714 0.234,1.252 -0.021,0.1 0,0.494 -0.555,0.293 -0.136,-0.032 -0.653,-0.069 -1.109,-0.546 -0.069,-0.074 -0.708,-0.658 -0.848,-0.928 -0.035,-0.042 -0.372,-0.194 -0.22,0.287 0.061,0.188 0.348,0.59 0.35,0.678 0.002,0.088 0.048,0.26 -0.195,0.454 -0.05,0.038 -1.871,1.325 -2.982,1.497 -0.291,0.04 -0.773,0.105 -0.999,-0.115 -0.046,-0.057 -0.207,-0.188 -0.266,-0.377 -0.023,-0.023 -0.077,0.059 -0.039,0.314 0.038,0.255 0.086,0.909 -0.002,1.137 a 0.94,0.94 0 0 0 -0.118,0.406 c -0.018,0.109 -0.148,0.45 -0.295,0.452 -0.1,0 -0.402,0.075 -0.636,-0.438 -0.044,-0.09 -0.36,-0.636 -0.4,-1.565 -0.021,-0.157 -0.086,-0.649 -0.203,-0.806 -0.023,-0.055 -0.102,-0.178 -0.155,0.071 -0.044,0.147 -0.301,0.724 -0.873,0.779 -0.572,0.055 -2.212,0.004 -2.465,0.165 -0.17,0.094 -0.266,0.232 -0.32,0.253 -0.054,0.021 -0.214,0.105 -0.172,-0.165 0.029,-0.178 -0.015,-0.674 0.632,-1.099 0.136,-0.082 0.327,-0.188 0.534,-0.285 a 3.9,3.9 0 0 1 0.655,-0.276 c 0.09,-0.023 0.324,-0.071 0.335,-0.128 0.011,-0.057 0.031,-0.113 -0.17,-0.108 -0.201,0.005 -1.693,0.06 -2.26,-0.245 -0.214,-0.092 -0.85,-0.408 -1.013,-0.697 -0.067,-0.101 -0.298,-0.434 0.117,-0.519 0.335,-0.03 0.649,-0.101 1.339,0.257 0.17,0.065 0.432,0.285 0.926,0.274 0.291,-0.002 0.538,0.015 0.571,-0.021 -0.159,-0.23 -0.425,-0.619 -1.16,-0.822 -0.735,-0.203 -2.411,-0.653 -2.616,-1.344 a 4.21,4.21 0 0 1 -0.136,-0.728 c 0.013,-0.09 -0.012,-0.178 0.528,-0.065 0.54,0.113 1.103,0.136 1.527,0.186 0.43,0.048 0.825,0.142 1.152,0.419 0.094,0.1 0.23,0.219 0.276,0.219 -0.052,-0.247 -0.172,-0.738 -1.199,-1.157 -0.193,-0.065 -1.763,-0.609 -2.083,-1.005 -0.32,-0.396 -0.458,-0.58 -0.488,-0.881 -0.012,-0.098 -0.092,-0.199 0.289,-0.107 0.218,0.053 0.53,0.059 0.812,0.057 0.282,-0.002 1.074,-0.147 1.53,0.241 0.251,0.173 0.431,0.339 0.555,0.357 0.124,0.018 0.463,0.086 0.255,-0.125 -0.208,-0.211 -0.469,-0.542 -0.91,-0.76 -0.346,-0.169 -1.319,-0.567 -1.907,-0.996 0,0 -0.276,-0.22 -0.347,-0.32 -0.195,-0.281 -0.425,-0.543 -0.436,-1.072 0.011,-0.09 -0.071,-0.291 0.492,-0.065 0.293,0.098 1.557,0.377 2.397,1.061 0.205,0.124 0.335,0.128 0.588,0.392 0,0 0.326,0.389 0.578,0.764 0.058,0.123 0.163,0.368 0.221,0.422 0.046,0.044 0.139,0.178 0.101,-0.115 -0.029,-0.203 0.035,-0.617 -0.165,-1.065 l -0.003,-0.002 a 1.68,1.68 0 0 0 -0.424,-0.57 7.81,7.81 0 0 0 -2.286,-1.218 c -0.251,-0.073 -1.765,-0.722 -1.999,-1.21 -0.013,-0.058 -0.073,-0.391 -0.142,-0.203 0,0 -0.513,1.187 -0.105,2.263 0.059,0.098 0.28,0.368 0.027,0.705 -0.023,0.026 -0.167,0.262 -0.167,0.262 -0.39,0.628 -1.321,2.242 -1.522,2.983 -0.243,0.898 -1.245,2.888 -0.048,4.523 0.071,0.094 0.23,0.27 0.387,0.439 l 0.348,0.386 c 0.088,0.113 0.278,0.355 0.314,0.617 0.031,0.255 0.136,0.498 0.152,0.628 l 0.059,0.837 c -0.027,0.071 -0.111,0.333 -0.366,0.379 -0.118,0.019 -0.595,-0.017 -0.89,0.291 l -0.299,0.251 c -0.073,-0.188 0.079,-0.536 -0.073,-0.908 -0.046,-0.071 -0.149,-0.256 -0.308,-0.371 -0.059,-0.054 -0.235,-0.125 -0.195,-0.368 a 2.73,2.73 0 0 0 -0.199,-1.342 c -0.058,-0.084 -0.09,-0.314 -0.178,-0.356 -0.058,0.03 -0.1,0.063 -0.127,0.22 -0.027,0.157 -0.268,1.763 -0.814,2.03 -0.072,0.046 -0.21,0.193 -0.17,-0.054 0.038,-0.113 0.174,-0.634 0.14,-0.751 -0.042,-0.028 -0.521,-0.176 -0.498,-0.582 0,-0.088 0.006,-0.507 0.176,-0.794 0.012,-0.023 0.031,-0.064 0.054,-0.121 0.065,-0.178 0.139,-0.486 0.057,-0.779 0,-0.025 -0.048,-0.284 -0.188,-0.037 -0.044,0.083 -0.522,0.824 -0.522,0.824 l -0.602,0.852 c -0.139,0.132 -0.327,0.237 -0.327,0.237 -0.017,-0.245 0.186,-0.605 0.031,-1.089 -0.006,-0.023 -0.012,-0.044 -0.023,-0.062 -0.042,-0.101 -0.487,-0.743 -0.565,-0.944 -0.078,-0.201 -0.255,-0.672 -0.054,-0.72 0.142,-0.03 1.84,-0.448 2.231,-2.631 0.025,-0.145 0.544,-2.692 0.754,-3.199 0.039,-0.083 0.081,-0.387 0.081,-0.387 -0.021,-0.05 -0.048,-0.061 -0.121,-0.002 -0.021,0.027 -0.042,0.061 -0.069,0.119 -0.038,0.113 -0.833,1.742 -1.819,2.221 l -0.442,0.31 c -0.042,0.015 -0.201,0.117 -0.188,-0.084 -0.002,-0.13 -0.009,-0.575 -0.055,-0.703 -0.046,-0.128 -0.023,-0.389 0.032,-0.578 0.055,-0.189 0.232,-0.814 0.617,-0.933 0.113,-0.046 0.701,-0.071 1.028,-0.377 h 0.002 c 0.011,-0.011 0.013,-0.015 0.017,-0.017 0.1,-0.088 0.709,-0.502 0.82,-0.82 0.03,-0.071 0.111,-0.247 0.038,-0.247 -0.073,0 -0.126,0.046 -0.214,0.119 -0.088,0.073 -1.008,0.737 -1.888,0.695 -0.188,0.002 -1.617,-0.218 -2.189,-1.576 -0.044,-0.084 -0.125,-0.488 -0.025,-0.49 0.1,-0.002 0.421,0.153 0.697,0.193 0.276,0.04 2.235,0.018 2.365,0.014 0.13,-0.004 0.256,-0.048 0.477,0.178 0.132,0.113 0.54,0.467 0.67,0.494 0.105,0.025 0.335,0.094 0.216,-0.163 -0.034,-0.13 -0.253,-0.498 -0.806,-0.764 -0.086,-0.04 -1.233,-0.454 -1.57,-1.411 -0.042,-0.088 -0.339,-0.542 -0.22,-1.107 0.03,-0.103 0.095,-0.521 0.385,-0.165 0.093,0.115 0.237,0.37 0.601,0.435 0.13,0.025 0.578,0.09 1.074,0.385 l 2.225,1.172 0.827,0.289 c 0.071,-0.004 0.201,-0.021 0.083,-0.117 -0.092,-0.078 -1.258,-0.685 -1.898,-3.129 -0.161,-0.614 -0.287,-1.338 -0.354,-2.194 -0.146,-0.025 -7.82,-2.273 -8.203,-2.355 -0.383,-0.082 -0.95,-0.36 -1.915,-0.291 l -3.129,0.159 a 3.58,3.58 0 0 1 -1.195,-0.322 h -0.002 0.002 c -0.224,-0.113 -0.419,-0.251 -0.519,-0.425 -0.096,-0.138 -0.377,-0.431 -0.381,-0.703 L -171.633,70.485 -136.31,35.243 -171.633,0 -85.817,35.243 -90.909,22.842 c -0.002,0.008 -0.002,0.019 -0.004,0.023 -0.484,0.119 -0.854,0.094 -1.015,0.09 -0.586,-0.046 -1.093,-0.626 -1.141,-0.749 -0.073,-0.183 -0.128,-0.055 -0.163,0.033 -0.035,0.088 0.012,0.264 0.046,0.515 0.029,0.253 0.217,0.666 0.23,0.896 -0.006,0.46 -0.471,0.54 -0.827,0.569 -0.465,0.046 -1.061,-0.337 -1.396,-0.592 -0.335,-0.255 -0.917,-0.425 -1.396,-0.559 -0.479,-0.134 -3.41,-0.569 -4.088,-0.668 -0.678,-0.099 -2.363,-0.042 -2.643,-0.029 -0.28,0.013 -0.327,-0.042 -0.427,-0.197 a 10.37,10.37 0 0 1 -0.637,-1.421 c -0.282,-0.908 -1.063,-1.758 -1.356,-1.97 -0.293,-0.212 -2.945,-1.722 -3.098,-1.825 -0.155,-0.111 -0.048,-0.194 -0.012,-0.247 0.036,-0.053 0.142,-0.255 0.251,-0.448 0.517,-0.772 0.479,-1.5 0.502,-1.814 0.023,-0.314 -0.123,-0.005 -0.195,0.119 -0.106,0.203 -0.535,0.756 -0.678,0.996 -0.573,1.013 -1.31,1.384 -1.469,1.449 -0.26,0.083 -0.124,0.123 -0.036,0.157 0.241,0.092 0.549,0.443 0.668,0.605 l 1.103,1.408 c 0.513,0.703 1.264,0.318 1.388,0.199 0.337,-0.327 0.542,-0.218 0.682,-0.18 0.415,0.094 0.385,0.785 0.348,0.961 -0.174,1.076 -1.428,1.122 -1.62,1.138 -0.886,0.019 -1.909,-1.092 -2.079,-1.358 -0.17,-0.266 -0.19,-0.021 -0.207,0.048 -0.017,0.069 -0.006,0.207 0.006,0.502 0.012,0.295 1.128,1.08 1.541,1.365 1.722,0.934 1.722,1.943 1.747,2.413 0.025,0.47 -0.376,0.672 -0.514,0.72 -0.176,0.065 -0.172,-0.159 -0.187,-0.33 -0.048,-0.279 -0.372,-0.549 -0.575,-0.76 -0.203,-0.211 -1.867,-0.833 -2.001,-0.904 -1.16,-0.471 -0.894,-1.666 -0.854,-1.943 0.04,-0.277 -0.312,-0.178 -0.379,-0.198 -0.329,-0.021 -0.718,0.247 -0.877,0.347 -0.561,0.373 -1.011,0.228 -1.199,0.172 -1.526,-0.304 -3.433,-1.677 -4.203,-2.211 -0.77,-0.534 -5.135,-4.59 -5.221,-4.713 -0.429,-0.515 -1.096,-1.087 -1.756,-1.606 h -0.006 l -2.198,-1.54 c -0.962,-0.559 -2.135,-0.195 -2.396,-0.111 -0.666,0.247 -0.607,0.856 -0.574,1.032 0.044,0.506 1.001,0.435 1.47,0.425 0.18,0.002 0.443,0.083 0.728,0.19 l 0.002,0.008 c 0.628,0.252 1.373,0.664 1.599,0.764 0.793,0.344 1.248,0.195 1.459,0.095 0.471,-0.166 0.327,0.094 0.291,0.198 -0.165,0.534 -0.81,0.662 -1.105,0.674 -0.49,0.042 -1.3,-0.249 -1.612,-0.355 -0.312,-0.116 -0.194,0.203 -0.128,0.291 0.086,0.211 0.825,0.638 1.068,0.749 0.636,0.324 2.049,-0.069 2.21,-0.136 0.155,-0.069 0.226,-0.084 0.207,0.002 -0.01,0.542 -0.445,0.636 -0.655,0.772 -1.038,0.519 -1.952,0.228 -2.264,0.149 -0.624,-0.149 -1.459,-0.994 -1.564,-1.101 -0.105,-0.107 -0.119,-0.004 -0.052,0.119 l 0.335,0.668 c 0.521,0.979 0.326,1.256 0.217,1.48 -0.109,0.224 -0.224,-0.04 -0.257,-0.145 -0.115,-0.381 -0.511,-0.598 -0.716,-0.757 -0.205,-0.159 -1.67,-0.898 -1.842,-1.005 -0.996,-0.699 -0.676,-1.354 -0.582,-1.714 0.065,-0.251 -0.042,-0.551 -0.123,-0.752 h -0.004 l -0.08,-0.192 c -0.555,-1.089 -0.193,-2.001 -0.029,-2.311 0.544,-1.331 2.403,-1.174 2.802,-1.185 2.313,0.004 5.283,3.079 5.589,3.399 0.306,0.32 0.314,0.023 0.314,0.023 l -0.151,-0.473 c -0.065,-0.192 -1.021,-1.201 -1.191,-1.391 -0.169,-0.195 -0.176,-0.926 -0.205,-1.099 -0.029,-0.173 0.155,-0.105 0.26,-0.101 1.057,0.243 0.965,0.398 1.389,0.963 0.312,0.41 0.57,1.603 0.716,2.357 h 0.002 l 0.118,0.578 c 0.347,1.155 0.95,1.408 1.174,1.565 0.293,0.216 0.243,-0.065 0.211,-0.151 -0.032,-0.086 -0.222,-0.215 -0.425,-0.46 -0.203,-0.245 -0.178,-0.873 -0.169,-1.444 v -0.078 c -0.017,-0.536 -0.295,-0.94 -0.381,-1.025 -0.186,-0.195 0.111,-0.208 0.23,-0.189 0.519,0.063 0.76,0.431 1.032,0.683 0.172,0.15 0.314,0.332 0.435,0.525 l 0.002,0.002 c 0.624,0.994 0.639,2.346 0.689,2.654 0.063,0.366 0.833,1.076 1.21,1.43 0.649,0.617 2.336,1.603 3.246,2.089 0.915,0.483 1.497,0.115 1.671,-0.023 0.37,-0.273 0.24,-0.779 0.14,-1.093 -0.1,-0.314 -0.58,-0.567 -0.737,-0.638 l -2.225,-0.89 c -0.155,-0.054 -0.41,-0.391 -0.511,-0.479 -1.034,-0.588 -1.969,-1.98 -2.536,-3.008 l -0.356,-0.693 c -0.455,-0.963 -1.595,-5.277 -1.641,-5.555 A 3.45,3.45 0 0 1 -123,5.723 c -0.159,-0.153 -0.67,-0.534 -1.154,-0.875 h -0.002 l -0.856,-0.568 c -0.377,-0.217 -1.021,-0.226 -1.176,-0.213 -0.419,-0.006 -0.124,0.207 -0.008,0.347 0.188,0.214 1.073,0.369 1.262,0.425 0.01,0.002 0.021,0.004 0.037,0.015 h 0.015 c 0.712,0.218 0.743,0.469 0.911,0.661 l 1.226,1.327 c 0.364,0.266 0.17,0.314 0.065,0.348 -0.331,0.096 -0.852,0.054 -1.216,-0.004 -0.833,-0.136 -2.043,-1.463 -2.3,-1.729 -0.16,-0.164 -0.532,-0.4 -0.844,-0.574 h -0.027 c -0.203,-0.13 -0.346,-0.201 -0.419,-0.23 -0.213,-0.09 -0.146,0.09 -0.067,0.195 h 0.002 c 0.013,0.023 0.03,0.037 0.046,0.052 0.084,0.067 0.356,0.333 0.612,0.615 0.841,0.783 0.575,1.053 0.5,1.346 -0.075,0.293 -0.532,0.496 -0.703,0.561 -0.195,0.052 -0.137,-0.176 -0.134,-0.366 0.058,-0.327 -0.283,-0.837 -0.383,-0.994 -0.128,-0.27 -0.993,-0.94 -1.394,-1.214 h -0.003 l -0.163,-0.103 a 7.25,7.25 0 0 1 -1.013,-0.695 c -0.119,-0.123 -0.159,-0.002 -0.159,0.086 -0.002,0.138 0.151,0.333 0.322,0.488 0.076,0.071 0.212,0.15 0.354,0.224 v 0.006 l 0.507,0.291 c 0.634,0.567 0.207,1.101 0.1,1.201 -0.195,0.191 -0.446,0.551 -0.513,0.634 -0.194,0.206 -0.263,0.103 -0.316,-0.006 a 12.68,12.68 0 0 1 -0.345,-1.063 c -0.029,-0.142 -0.153,-0.247 -0.237,-0.318 -0.161,-0.168 -0.305,-0.465 -0.416,-0.739 h -0.002 l -0.187,-0.525 c -0.278,-0.944 -0.604,-1.154 -0.743,-1.296 -0.139,-0.142 -0.085,0.048 -0.09,0.186 0.078,0.542 -0.023,1.321 -0.06,1.532 -0.007,0.036 -0.017,0.071 -0.027,0.097 v 0.01 c -0.233,0.827 -0.869,1.024 -1.018,1.055 -0.176,0.033 -0.171,-0.209 -0.169,-0.316 0.004,-0.088 0.094,-0.481 0.136,-0.749 l 0.019,-0.136 c 0.021,-0.243 -0.18,-0.681 -0.379,-1.152 -0.199,-0.471 0.004,-1.251 0.04,-1.318 0.035,-0.074 0.247,-0.224 0.389,-0.377 0.142,-0.153 0.366,-0.098 0.471,-0.063 l 1.329,0.509 c 2.539,0.931 4.228,0.615 4.544,0.548 2.426,-0.615 2.487,-2.126 2.543,-2.369 0.172,-0.796 -0.257,-1.101 -0.341,-1.239 -0.17,-0.3 0.04,-0.367 0.146,-0.415 0.155,-0.052 0.45,0.007 0.674,0.097 0.484,0.182 0.921,1.096 1.018,1.391 0.102,0.298 0.205,0.195 0.224,0.111 0.134,-0.628 0.54,-0.881 0.805,-1.203 0.266,-0.329 0.62,-0.618 0.779,-0.823 0.159,-0.205 0.195,-0.083 0.243,0.021 0.048,0.104 0.082,0.297 0.075,0.628 -0.046,0.747 -0.9,1.723 -1.094,1.909 -0.194,0.186 -0.072,0.19 -0.072,0.19 0,0 0.229,-0.031 0.352,-0.113 0.155,-0.085 0.747,-0.265 1.222,-0.328 0.764,-0.075 0.85,0.121 1.141,0.228 0.379,0.144 0.134,0.245 0.134,0.245 l -0.423,0.272 c -0.19,0.117 -1.103,0.486 -1.66,0.563 -0.557,0.077 -1.092,-0.144 -1.245,-0.251 -0.153,-0.107 -0.4,-0.197 -0.571,-0.216 -0.171,-0.019 -0.176,0.067 -0.176,0.067 l 0.222,0.3 c 0.067,0.071 0.567,0.443 0.893,0.569 0.534,0.289 1.112,0.176 1.214,0.18 0.102,0.004 1.244,-0.536 1.788,-0.749 a 2.01,2.01 0 0 1 1.235,-0.122 c 0.364,0.059 0.295,-0.029 0.245,-0.079 -0.053,-0.057 -0.222,-0.231 -0.306,-0.354 -0.084,-0.123 -0.908,-0.819 -1.044,-0.925 -0.446,-0.509 -1.21,-0.402 -1.315,-0.404 -0.105,-0.002 -0.048,-0.21 -0.029,-0.469 0.019,-0.259 0.036,-1.024 -0.006,-1.461 -0.038,-0.764 -0.798,-1.091 -0.955,-1.233 -0.008,-0.008 -0.019,-0.017 -0.025,-0.042 h -0.031 c -0.076,-0.035 -0.151,-0.021 -0.21,0.004 l 0.002,0.009 c -0.052,0.025 -0.094,0.065 -0.117,0.094 -0.052,0.067 0.017,0.172 0.065,0.278 0.22,0.35 0.023,0.591 -0.048,0.781 -0.236,0.655 -0.8,0.961 -0.977,1.078 -0.177,0.117 -0.26,-0.075 -0.275,-0.128 -0.015,-0.053 -0.134,-0.194 -0.274,-0.297 -0.272,-0.337 -0.931,-0.383 -1.138,-0.423 -0.9,-0.155 -1.382,0.358 -1.537,0.461 -0.264,0.134 -0.075,0.276 -0.075,0.276 l 0.393,0.32 c 1.08,0.819 0.319,1.71 0.195,1.882 -0.791,1.446 -3.585,1.222 -4.054,1.181 -1.321,-0.095 -3.299,-1.292 -3.399,-1.382 -0.1,-0.09 -0.191,0.034 -0.247,0.101 -0.105,0.085 -0.507,0.253 -0.681,0.318 -0.598,0.249 -1.706,0.111 -1.779,0.111 a 1.09,1.09 0 0 1 -0.343,-0.095 c -0.172,-0.075 -0.061,-0.437 -0.025,-0.523 0.036,-0.086 0.58,-0.408 0.808,-0.575 0.23,-0.174 0.544,-0.182 0.785,-0.18 0.241,0.002 0.213,-0.17 0.213,-0.256 0,-0.086 -0.1,-0.109 -0.188,-0.109 -0.088,0 -0.555,-0.096 -0.762,-0.134 -0.207,-0.038 -0.955,-0.157 -1.193,-0.334 0,0 0.159,-0.153 0.301,-0.325 0.142,-0.172 1.342,-0.308 1.601,-0.337 0.264,-0.029 0.195,-0.153 0.199,-0.205 -0.016,-0.086 -0.276,-0.126 -0.435,-0.149 -0.155,-0.016 -1.386,-0.353 -1.624,-0.408 l -1.457,-0.322 c -0.467,-0.059 -0.113,-0.297 -0.029,-0.345 0.09,-0.053 0.487,-0.116 0.962,-0.141 0.475,-0.025 2.204,0.105 2.435,0.13 0.231,0.025 0.309,0.061 0.416,0.013 a 3.57,3.57 0 0 1 0.18,-0.365 c 0.061,-0.098 0.126,-0.198 0.197,-0.276 0.172,-0.195 1.128,-1.812 1.128,-1.812 0.484,-0.844 0.467,-1.577 0.475,-1.882 0.009,-0.496 0.187,-0.513 0.419,-0.632 0.232,-0.119 0.697,-0.04 0.906,0.123 0.316,0.201 0.101,1.264 0.13,1.746 0.029,0.482 0.299,0.201 0.335,0.167 l 1.193,-1.063 c 0.199,-0.211 0.305,-0.176 0.358,-0.155 0.107,0.055 0.247,0.216 0.261,0.431 0.042,0.515 -0.408,0.9 -0.609,1.11 -0.196,0.209 -0.222,0.46 -0.224,0.602 -0.004,0.25 -0.169,0.549 -0.224,0.687 -0.075,0.188 -0.094,0.559 -0.09,0.95 l 0.055,1.028 c 0.308,1.764 -0.182,2.202 -0.26,2.574 0,0 0.201,-0.194 0.312,-0.37 0.793,-0.821 0.879,-2.493 0.898,-2.688 0.019,-0.195 0.147,-0.192 0.308,-0.244 0.224,-0.057 0.437,-0.162 0.636,-0.296 h 0.006 c 0.595,-0.389 1.045,-0.983 1.181,-1.167 a 47.72,47.72 0 0 1 1.976,-2.169 c 0.217,-0.192 0.201,-0.228 0.13,-0.268 -0.656,-1.04 -2.975,-2.844 -3.588,-3.282 -0.613,-0.438 -0.624,-1.203 -0.613,-1.683 -0.007,-0.602 0.856,-1.193 1.073,-1.44 0.438,-0.508 4.781,-2.639 5.319,-2.984 1.35,-0.727 2.154,-1.974 2.3,-2.221 0.146,-0.247 0.662,-0.289 0.896,-0.341 0.234,-0.052 0.302,0.023 0.337,0.113 0.048,0.123 0.073,0.73 0.071,1.015 -0.008,0.374 0.191,0.146 0.21,0.111 0.127,-0.103 0.186,-0.385 0.24,-0.58 0.059,-0.199 0.364,-0.423 0.436,-0.477 0.073,-0.048 0.862,-0.39 1.147,-0.494 0.431,-0.136 0.481,0.063 0.512,0.169 0.07,0.178 -0.1,0.783 -0.194,1.08 l -0.551,1.897 c -0.111,0.299 -0.307,0.351 -0.483,0.345 -0.178,0 -0.71,-0.082 -0.944,-0.119 -0.23,-0.044 -0.199,-0.896 -0.195,-1.108 0.004,-0.212 -0.14,-0.058 -0.211,0.03 -0.073,0.123 -0.153,0.408 -0.186,0.531 -0.063,0.446 -0.377,1.062 -0.505,1.237 -0.326,0.511 -0.998,0.197 -1.053,0.143 a 0.18,0.18 0 0 0 -0.211,-0.023 3.62,3.62 0 0 1 -0.632,0.45 c -0.626,0.293 -2.236,1.599 -2.686,2.057 -0.45,0.458 -0.684,0.503 -0.935,0.551 -0.251,0.048 -1.692,0.094 -2.261,0.104 -0.569,0.01 -0.113,0.245 0.029,0.354 0.245,0.237 0.685,0.421 0.972,0.463 0.492,0.134 2.629,0.134 2.894,0.157 0.265,0.023 0.656,0.207 0.921,0.266 2.006,0.336 2.372,0.807 3.148,1.211 0.776,0.404 0.293,0.432 0.293,0.432 l -0.661,0.094 c -1.959,0.18 -2.966,0.877 -3.236,1.013 -0.573,0.272 -0.13,0.337 -0.042,0.354 0.143,0.037 0.498,-0.044 0.714,-0.095 0.59,-0.184 1.712,-0.238 2.196,-0.282 2.419,-0.134 3.453,0.663 3.56,0.722 l 0.938,0.282 c 0.655,0.189 0.697,-0.184 0.791,-0.36 0.094,-0.176 0.674,-0.985 1.239,-1.793 0.839,-1.198 1.919,-3.027 2.556,-4.706 0.637,-1.679 0.471,-2.43 0.473,-2.624 a 0.57,0.57 0 0 1 0.169,-0.425 c 0.253,-0.297 0.406,0.094 0.477,0.222 0.071,0.128 0.132,0.538 0.18,0.661 0.174,0.396 0.323,0.113 0.323,0.113 0,0 0.035,-0.159 0.039,-0.372 0.004,-0.213 -0.079,-0.482 -0.096,-0.626 -0.048,-0.375 0.641,-1.02 0.752,-1.198 a 2.03,2.03 0 0 1 0.163,-0.24 l -13.352,-32.514 35.241,35.323 35.244,-35.323 -11.004,26.795 c 0.268,0.009 0.553,0.283 0.693,0.381 0.477,0.283 0.716,1.267 0.743,1.713 0.025,0.452 -0.092,2.168 -0.157,3.131 -0.065,0.963 0.216,1.534 0.293,1.915 0.077,0.381 2.328,8.054 2.355,8.201 1.277,0.102 2.252,0.332 3.002,0.602 h 0.002 c 1.773,0.66 2.248,1.566 2.317,1.652 0.098,0.117 0.117,-0.013 0.117,-0.086 0,-0.073 -0.178,-0.521 -0.289,-0.827 a 8.04,8.04 0 0 0 -0.358,-0.734 h 0.002 l -0.816,-1.491 c -0.293,-0.496 -0.358,-0.944 -0.383,-1.073 -0.065,-0.36 -0.325,-0.509 -0.44,-0.599 -0.351,-0.293 0.065,-0.358 0.166,-0.385 0.565,-0.122 1.023,0.176 1.107,0.222 0.961,0.33 1.371,1.48 1.415,1.567 0.262,0.551 0.634,0.773 0.762,0.804 0.259,0.12 0.19,-0.111 0.161,-0.213 -0.023,-0.13 -0.375,-0.538 -0.49,-0.672 -0.226,-0.22 -0.182,-0.348 -0.178,-0.477 l -0.019,-2.363 c -0.035,-0.277 -0.192,-0.595 -0.188,-0.7 0.004,-0.105 0.402,-0.018 0.49,0.028 1.358,0.571 1.578,2.001 1.576,2.189 0.042,0.879 -0.624,1.802 -0.695,1.886 -0.071,0.084 -0.119,0.144 -0.119,0.215 -0.004,0.076 0.171,-0.01 0.247,-0.039 0.318,-0.107 0.732,-0.72 0.82,-0.821 0.32,-0.324 0.346,-0.929 0.392,-1.044 0.123,-0.39 0.747,-0.563 0.933,-0.62 0.188,-0.05 0.45,-0.077 0.578,-0.031 0.128,0.046 0.575,0.052 0.705,0.054 0.201,-0.01 0.096,0.147 0.084,0.189 -0.017,0.046 -0.163,0.242 -0.312,0.443 -0.477,0.984 -2.106,1.779 -2.221,1.821 -0.247,0.111 -0.163,0.168 -0.121,0.214 0.056,0.071 0.305,-0.069 0.389,-0.111 0.511,-0.207 3.056,-0.722 3.203,-0.752 2.183,-0.393 2.599,-2.086 2.633,-2.229 0.046,-0.201 0.515,-0.018 0.716,0.055 0.201,0.073 0.843,0.519 0.941,0.565 0.519,0.195 0.894,-0.029 1.154,-0.008 0,0 -0.103,0.184 -0.237,0.326 -0.134,0.142 -1.501,1.028 -1.676,1.126 -0.247,0.138 0.012,0.186 0.041,0.186 a 1.33,1.33 0 0 0 0.896,-0.113 c 0.291,-0.167 0.71,-0.173 0.796,-0.173 0.404,-0.023 0.554,0.456 0.584,0.498 0.113,0.033 0.632,-0.105 0.749,-0.147 0.245,-0.033 0.1,0.105 0.054,0.176 -0.27,0.542 -1.871,0.789 -2.03,0.814 -0.159,0.025 -0.188,0.069 -0.218,0.128 0.038,0.086 0.27,0.119 0.356,0.178 0.572,0.255 1.233,0.224 1.338,0.197 0.22,-0.036 0.297,0.1 0.353,0.175 h -0.002 c 0.007,0.005 0.015,0.013 0.019,0.019 0.111,0.159 0.295,0.264 0.369,0.31 0.372,0.149 0.722,-0.004 0.908,0.073 l -0.251,0.295 c -0.308,0.3 -0.272,0.775 -0.289,0.89 -0.048,0.26 -0.312,0.341 -0.383,0.368 -0.071,0.027 -0.705,-0.041 -0.833,-0.058 -0.128,-0.017 -0.373,-0.122 -0.632,-0.155 -0.259,-0.033 -0.5,-0.224 -0.616,-0.312 -0.116,-0.088 -0.636,-0.59 -0.822,-0.735 -1.633,-1.197 -3.627,-0.192 -4.528,0.049 -0.893,0.247 -3.081,1.563 -3.242,1.689 -0.339,0.253 -0.607,0.033 -0.703,-0.03 -1.074,-0.406 -2.265,0.107 -2.265,0.107 -0.188,0.069 0.149,0.13 0.205,0.145 0.486,0.232 1.135,1.747 1.208,1.996 l 0.122,0.35 h 0.004 c 0.385,1.009 1.032,1.888 1.092,1.936 0.628,0.697 1.348,0.553 1.641,0.59 0.293,0.037 0.155,-0.05 0.113,-0.096 -0.054,-0.059 -0.301,-0.161 -0.425,-0.222 -1.063,-0.712 -0.96,-0.846 -1.157,-1.164 -0.253,-0.314 -0.45,-0.682 -0.603,-1.042 -0.262,-0.605 -0.393,-1.172 -0.454,-1.356 -0.224,-0.565 -0.027,-0.484 0.063,-0.494 0.529,0.01 0.795,0.24 1.071,0.435 0.314,0.22 0.66,0.86 0.932,1.415 h -0.002 l 0.387,0.841 c 0.218,0.442 0.553,0.704 0.76,0.911 0.207,0.207 0.148,-0.132 0.13,-0.255 -0.018,-0.123 -0.189,-0.308 -0.365,-0.559 -0.213,-0.256 -0.266,-0.616 -0.268,-0.936 h -0.002 c 0,-0.247 0.028,-0.471 0.03,-0.592 0.004,-0.281 0,-0.595 -0.055,-0.808 -0.09,-0.383 0.006,-0.304 0.107,-0.289 0.301,0.025 0.479,0.161 0.879,0.486 0.214,0.171 0.471,0.709 0.674,1.199 h 0.002 l 0.331,0.883 c 0.421,1.028 0.914,1.147 1.157,1.195 0,-0.042 -0.119,-0.18 -0.217,-0.272 -0.277,-0.331 -0.371,-0.722 -0.419,-1.151 l -0.065,-0.655 h 0.004 l -0.123,-0.875 c -0.117,-0.538 -0.027,-0.515 0.065,-0.525 0.092,-0.01 0.592,0.088 0.726,0.136 0.377,0.111 0.684,0.661 0.917,1.266 h -0.002 c 0.194,0.488 0.337,1.017 0.429,1.352 0.201,0.733 0.59,0.994 0.822,1.158 0.034,-0.034 0.017,-0.281 0.021,-0.572 0.009,-0.496 -0.211,-0.76 -0.276,-0.927 -0.247,-0.473 -0.289,-0.772 -0.283,-1.019 0.002,-0.113 0.015,-0.214 0.026,-0.321 0.087,-0.414 0.418,-0.184 0.519,-0.113 0.136,0.074 0.274,0.256 0.397,0.44 h 0.002 a 5.82,5.82 0 0 1 0.302,0.571 c 0.305,0.565 0.243,2.056 0.24,2.259 -0.003,0.203 0.053,0.18 0.109,0.171 0.056,-0.009 0.105,-0.245 0.13,-0.335 0.13,-0.435 0.396,-0.914 0.559,-1.193 0.427,-0.642 0.921,-0.6 1.099,-0.63 0.27,-0.041 0.188,0.118 0.165,0.172 -0.023,0.054 -0.159,0.153 -0.253,0.322 -0.159,0.254 -0.109,1.893 -0.165,2.464 -0.056,0.571 -0.633,0.831 -0.779,0.873 -0.249,0.052 -0.126,0.134 -0.067,0.155 0.073,0.058 0.226,0.102 0.366,0.175 h 0.241 l 0.195,0.03 c 0.929,0.04 1.475,0.351 1.565,0.4 0.513,0.234 0.438,0.535 0.438,0.636 -0.002,0.146 -0.344,0.276 -0.455,0.295 -0.167,0.01 -0.303,0.061 -0.408,0.117 -0.224,0.084 -0.875,0.038 -1.13,0.002 -0.255,-0.036 -0.339,0.017 -0.316,0.04 0.193,0.059 0.32,0.218 0.377,0.262 0.22,0.23 0.155,0.711 0.117,1.002 -0.228,1.444 -1.304,2.738 -1.499,2.981 -0.195,0.243 -0.364,0.199 -0.454,0.194 -0.092,0 -0.488,-0.288 -0.678,-0.349 -0.479,-0.153 -0.329,0.188 -0.285,0.22 0.059,0.031 0.141,0.09 0.224,0.165 h 0.004 c 0.285,0.241 0.643,0.63 0.702,0.682 0.473,0.457 0.508,0.974 0.54,1.11 0.205,0.552 -0.189,0.533 -0.291,0.557 -0.538,0.035 -0.881,-0.103 -1.252,-0.237 -0.366,-0.13 -0.806,-0.774 -0.938,-0.879 -0.322,-0.243 -0.314,-0.006 -0.318,0.117 -0.004,0.123 0.218,0.385 0.272,0.467 0.218,0.36 -0.278,0.622 -0.391,0.72 a 16.72,16.72 0 0 0 -1.417,1.524 c -0.276,0.343 -0.425,-0.143 -0.5,-0.31 -0.226,-0.599 0.125,-0.996 0.324,-1.254 0.195,-0.251 0.45,-0.864 0.513,-1.134 0.063,-0.27 -0.318,0.175 -0.467,0.385 -0.149,0.21 -1.166,1.067 -1.415,1.274 -0.467,0.375 -1.115,0.388 -1.411,0.404 -0.525,0.049 -0.24,-0.228 -0.161,-0.316 0.079,-0.088 0.274,-0.374 0.54,-0.755 0.3,-0.444 1.101,-1.304 1.25,-1.447 0.408,-0.33 -0.042,-0.236 -0.153,-0.226 -0.291,0.026 -0.733,0.266 -1.061,0.383 -0.328,0.117 -0.9,0.658 -1.047,0.781 -0.571,0.425 -1.184,0.27 -1.408,0.243 -0.415,-0.019 -0.197,-0.203 -0.151,-0.306 0.115,-0.209 0.481,-0.64 0.609,-0.774 0.561,-0.615 1.132,-0.869 1.536,-1.005 h 0.013 c 0.257,-0.086 0.448,-0.121 0.525,-0.174 -0.224,-0.115 -0.416,-0.127 -0.663,-0.121 a 2.87,2.87 0 0 0 -1.204,0.341 l -0.914,0.505 c -0.993,0.588 -1.61,0.402 -2.173,0.289 -0.563,-0.113 -0.394,-0.212 -0.322,-0.314 0.046,-0.069 0.27,-0.319 0.483,-0.526 l 0.287,-0.253 c 0.887,-0.567 2.648,-0.814 2.991,-0.839 0.515,-0.011 0.159,-0.153 0.054,-0.21 -0.307,-0.159 -0.751,-0.215 -1.059,-0.259 -0.536,-0.061 -2.455,0.682 -2.731,0.726 -0.745,0.195 -1.394,-0.042 -1.687,-0.13 -0.496,-0.132 -0.218,-0.245 -0.149,-0.278 0.069,-0.033 0.645,-0.438 0.785,-0.538 1.044,-0.703 2.549,-1.126 2.788,-1.191 0.553,-0.073 0.176,-0.132 0.004,-0.172 -0.377,-0.09 -1.427,-0.006 -1.754,0.005 -1.551,0.129 -1.959,-0.034 -2.512,-0.164 -0.546,-0.129 -0.253,-0.226 -0.184,-0.278 0.088,-0.069 0.714,-0.402 0.992,-0.551 0.278,-0.149 0.124,-0.169 0.055,-0.205 -0.739,-0.117 -1.568,0.143 -1.88,0.291 -0.502,0.199 -0.998,1.001 -1.103,1.137 -0.211,0.272 -0.006,0.291 0.029,0.259 1.47,-0.406 2.768,0.132 2.989,0.203 0.221,0.071 0.086,0.176 0.015,0.26 -0.247,0.253 -1.304,0.718 -1.633,0.814 -0.586,0.094 -0.244,0.237 -0.161,0.31 0.321,0.331 1.281,0.626 1.434,0.676 0.32,0.157 0.239,0.276 0.103,0.387 h 0.002 l -0.166,0.13 c -0.175,0.153 -0.68,0.657 -1.086,1.116 -1.262,1.371 -3.366,5.768 -3.512,6.101 l -0.318,0.655 c -1.227,2.367 -2.893,3.958 -3.607,4.64 -0.782,0.744 -3.162,1.518 -3.547,1.564 -0.517,0.061 -0.381,0.295 -0.293,0.496 0.088,0.201 0.996,0.302 1.065,0.325 0.626,0.11 2.139,-0.639 2.736,-0.913 1.739,-0.787 3.773,-3.324 4.236,-3.858 0.314,-0.368 0.483,-1.473 0.573,-2.359 l 0.082,-0.674 c 0.214,-1.268 1.078,-1.638 1.352,-1.793 0.274,-0.155 0.12,0.094 0.078,0.261 -0.044,0.172 -0.007,1.434 -0.013,1.817 a 1.57,1.57 0 0 1 -0.102,0.494 l -0.195,0.431 c -0.094,0.226 0.088,0.151 0.14,0.132 0.105,-0.035 0.232,-0.318 0.333,-0.563 l 0.136,-0.347 c 0.385,-0.808 0.467,-1.999 0.502,-2.229 0.218,-1.56 0.526,-1.826 0.833,-2.244 0.312,-0.419 0.576,-0.488 0.729,-0.561 0.15,-0.082 0.132,-0.059 0.18,0.002 0.077,0.14 0.023,1.13 0.017,1.302 -0.011,1.258 -1.093,2.61 -1.185,2.75 -0.178,0.26 0.069,0.113 0.109,0.084 0.265,-0.149 0.678,-0.645 0.78,-0.804 0.448,-0.879 1.409,-2.043 1.551,-2.223 1.129,-1.046 2.104,-0.958 2.539,-0.944 1.206,0.053 1.763,0.626 1.92,0.741 0.937,0.733 0.849,1.637 0.849,2.225 0,0.588 -0.32,0.982 -0.42,1.141 -0.241,0.379 -0.214,0.653 -0.207,0.732 0.006,0.04 -0.005,0.206 -0.019,0.375 h -0.002 l -0.042,0.41 c -0.097,0.838 -0.645,1.016 -0.85,1.175 -0.49,0.343 -1.608,1.473 -1.926,1.852 -0.318,0.379 -0.343,0.762 -0.337,0.854 0.017,0.249 -0.173,0.084 -0.211,0.025 -0.17,-0.195 -0.155,-0.477 -0.153,-0.668 -0.125,-0.801 0.85,-1.862 0.944,-2.003 0.094,-0.141 -0.291,0.046 -0.385,0.105 -0.316,0.184 -1.168,1.09 -1.762,1.645 -0.594,0.555 -1.116,0.333 -1.518,0.295 -0.402,-0.038 -0.952,-0.379 -1.174,-0.454 -0.758,-0.306 -0.113,-0.396 0,-0.421 0.111,-0.031 0.416,-0.217 0.609,-0.345 0.714,-0.532 1.834,-1.057 2.11,-1.153 0.577,-0.241 1.111,-0.201 1.174,-0.212 0.473,-0.063 0.726,-0.59 0.774,-0.672 0.166,-0.297 -0.064,-0.205 -0.165,-0.194 -0.163,0.016 -0.509,0.182 -0.672,0.259 -0.699,0.291 -1.352,0.069 -1.534,0.017 -0.699,-0.184 -0.094,-0.337 -0.002,-0.354 0.226,-0.029 0.389,-0.09 0.515,-0.161 h 0.008 c 0.172,-0.096 0.266,-0.207 0.333,-0.259 0.597,-0.624 1.4,-1.227 1.463,-1.275 0.611,-0.452 1.116,-0.354 1.176,-0.36 0.536,-0.086 0.306,-0.783 0.285,-0.865 -0.109,-0.519 -0.917,-0.579 -1.13,-0.579 -1.398,-0.072 -3.299,2.35 -3.485,2.53 l -0.704,0.808 -4.096,4.751 c -2.243,2.506 -3.782,3.113 -3.92,3.178 -1.126,0.713 -2.773,0.638 -3.257,0.611 -0.481,-0.034 -1.306,-0.793 -1.44,-0.921 -0.387,-0.341 -0.211,0.272 -0.178,0.408 0.117,0.442 0.645,0.988 0.758,1.093 0.247,0.314 1.036,0.613 1.113,0.651 0.298,0.129 -0.012,0.24 -0.129,0.295 -0.337,0.153 -0.934,0.18 -1.162,0.176 -0.597,-0.046 -0.743,-0.325 -0.854,-0.465 -0.504,-0.569 -0.379,-1.258 -0.375,-1.566 0.004,-0.308 -0.111,-0.176 -0.146,-0.125 a 8.45,8.45 0 0 1 -0.36,0.337 c -0.421,0.427 -0.927,0.544 -1.158,0.586 -0.231,0.042 -0.711,-0.107 -0.883,-0.13 -0.385,-0.065 -0.213,-0.153 -0.178,-0.197 0.059,-0.069 0.335,-0.18 0.417,-0.224 0.427,-0.176 0.797,-0.914 0.962,-1.233 l 0.923,-1.659 c 0.471,-0.693 1.078,-0.737 1.196,-0.76 0.251,-0.029 0.037,-0.249 -0.03,-0.343 -0.316,-0.329 -0.489,-0.798 -0.577,-0.986 -0.314,-0.496 -0.247,-1.677 -0.243,-1.886 0.006,-0.448 -0.218,-0.025 -0.253,0.042 -0.153,0.251 -0.13,0.824 -0.118,1.444 0.012,0.62 -0.048,0.848 -0.157,1.028 -0.106,0.186 -0.579,0.46 -0.732,0.573 -0.36,0.27 -1.336,1.721 -1.478,2.016 -0.142,0.295 -0.393,0.142 -0.483,0.107 -0.09,-0.035 -0.488,-0.446 -0.656,-0.607 -0.171,-0.166 -0.129,-0.587 -0.148,-0.681 -0.086,-0.473 -0.312,0.042 -0.36,0.109 -0.494,0.747 -0.325,1.599 -0.264,2.039 0.063,0.433 0.743,0.835 0.802,0.873 0.232,0.186 -0.111,0.261 -0.237,0.259 -0.182,-0.004 -0.307,-0.075 -0.423,-0.121 -0.477,-0.203 -0.816,-1.026 -0.874,-1.141 -0.143,-0.253 -0.183,-0.105 -0.218,0.019 -0.061,0.261 0.006,0.908 0.025,1.159 0.021,0.256 0.475,1.12 0.54,1.319 0.065,0.199 -0.268,0.088 -0.381,0.025 -0.303,-0.165 -0.483,-0.477 -0.638,-0.778 -0.325,-0.532 0.048,-1.434 0.083,-1.56 0.143,-0.341 0.141,-0.81 0.122,-0.96 -0.053,-0.254 -0.408,0.473 -0.471,0.6 -0.207,0.766 -1.055,1.92 -1.193,2.066 -0.423,0.496 -0.892,0.408 -1.214,0.415 -0.322,0.007 -0.168,-0.13 -0.132,-0.174 0.035,-0.059 0.197,-0.124 0.289,-0.189 0.188,-0.146 0.397,-0.441 0.515,-0.577 0.328,-0.314 0.973,-1.798 1.032,-1.911 0.152,-0.283 -0.088,-0.195 -0.229,-0.197 -0.136,-0.004 -0.401,0.188 -0.54,0.276 -0.139,0.088 -0.542,0.107 -0.726,0.113 -0.425,0.019 -0.795,0.218 -0.959,0.316 l -1.159,0.819 c -0.396,0.255 -0.913,0.178 -1.026,0.153 v -0.116 l -4.404,10.725 z m -43.938,80.653 c 0,0 0.496,-0.061 0.532,-0.203 0.006,-0.027 0.018,-0.05 0.029,-0.075 V 80.37 c 0.044,-0.088 0.084,-0.184 -0.128,-0.224 -0.195,-0.031 -0.462,-0.136 -0.638,0.046 -0.036,0.049 -0.084,0.107 -0.09,0.176 h -0.007 c 0.122,0.126 0.145,0.222 0.302,0.285 m -5.995,0.638 c 0.055,0.074 0.951,0.517 0.951,0.517 a 2.9,2.9 0 0 0 1.117,0.141 c 0.603,-0.046 0.459,-0.346 0.438,-0.453 -0.023,-0.211 -0.187,-0.477 -0.385,-0.736 -0.132,-0.182 -0.256,-0.285 -0.532,-0.392 a 2.1,2.1 0 0 0 -0.8,0.143 l -0.831,0.393 c -0.228,0.161 -0.01,0.316 0.042,0.387 m 3.885,-9.483 c 0,0 2.12,-0.98 2.242,-2.788 l 0.106,-1.405 c -0.004,-0.13 -0.117,-0.552 -0.223,0.073 -0.034,0.275 -0.13,1.369 -1.581,2.956 -0.148,0.132 -0.914,0.984 -1.03,1.044 -0.116,0.06 -0.684,0.542 0.486,0.12 M -55.136,59.98 c 0.247,-0.149 1.423,-1.057 2.286,-0.559 0.217,0.157 0.395,0.33 0.416,0.404 0.021,0.074 0.113,0.23 -0.136,0.251 -0.249,0.021 -1.174,0.056 -1.448,0.755 l -0.149,0.501 c 0,0.052 -0.19,0.234 0.412,0.205 0.602,-0.029 2.326,-0.182 2.74,0.042 0.199,0.088 0.519,0.06 0.383,0.563 -0.113,0.425 -0.295,1.538 -0.006,2.227 0.05,0.123 0.113,0.226 0.192,0.314 a 9.51,9.51 0 0 0 0.455,0.437 c 0.052,0.052 0.303,0.172 0.173,-0.111 -0.039,-0.088 -0.125,-0.287 -0.209,-0.546 0,0 -0.303,-1.526 0.161,-2.265 0.141,-0.178 0.632,-1.54 4.605,-2.248 0.513,-0.081 6.734,-1.509 7.257,-2.283 0.138,-0.143 0.314,-0.36 0.362,-0.538 0.052,-0.143 -0.046,-0.48 0.532,-0.17 0.177,0.069 0.717,0.325 1.059,0.408 l 0.573,0.222 c 0,0 0.266,0.048 0.065,-0.161 -0.1,-0.065 -0.611,-0.588 -0.626,-1.053 -0.002,-0.027 0,-0.05 0,-0.075 a 1.13,1.13 0 0 1 0.172,-0.542 l -10.667,-4.381 -0.596,0.259 c -0.266,0.13 -1.22,0.591 -1.631,0.49 -0.144,-0.033 -0.41,-0.098 -0.464,-0.153 -0.054,-0.055 -0.266,-0.029 0.004,0.178 0.197,0.141 0.54,0.509 0.651,0.635 0.107,0.119 0.289,0.349 -0.029,0.422 -0.319,0.078 -1.723,0.141 -2.186,0.111 -0.18,0.04 -0.318,0.111 -0.653,0.279 l -3.602,1.609 -0.831,0.3 c -0.052,0.018 -0.104,0.092 -0.01,0.427 a 4.21,4.21 0 0 1 0.088,0.448 h 0.002 c 0.067,0.456 0.102,1.088 -0.04,1.49 -0.048,0.217 -0.188,0.467 -0.188,0.467 0,0 -0.172,0.236 0.198,0.102 0.37,-0.134 1.034,-0.856 1.206,-1.247 0.174,-0.396 0.423,-1.252 0.548,-0.277 0.063,0.496 0.218,1.296 -0.165,1.8 -0.383,0.504 -0.944,0.978 -1.067,1.087 -0.123,0.109 -0.505,0.489 0.163,0.176 M -71.458,43.22 c 0.197,0.101 0.573,0.201 0.758,0.538 0.056,0.124 0.234,0.314 -0.082,0.638 -0.243,0.237 -0.699,0.637 -0.492,1.24 0.207,0.603 1.11,3.411 1.654,4.01 l 0.653,0.735 c 0.054,0.052 0.146,0.192 0.188,0.494 0.042,0.302 0.425,2.003 1.289,2.629 0.128,0.123 0.4,0.403 0.16,-0.074 -0.055,-0.14 -1.032,-1.921 -0.775,-3.581 l 0.237,-0.751 c 0.052,-0.124 0.134,-0.501 0.376,0.1 0.13,0.301 0.662,1.199 0.787,1.482 0.125,0.283 0.465,0.99 0.26,1.471 -0.084,0.235 -0.255,0.591 -0.253,0.84 0,0.073 -0.03,0.305 0.159,-0.002 0.088,-0.092 0.387,-0.365 0.46,-1.164 0.034,-0.285 0.04,-2.012 0.578,-2.663 0.088,-0.087 0.293,-0.54 0.393,0.101 0.042,0.32 0.266,1.011 0.344,1.381 0.078,0.37 0.414,1.346 0.142,1.939 a 7.01,7.01 0 0 0 -0.492,1.431 c -0.05,0.233 -0.063,0.551 -0.063,0.551 0,0 0.023,0.286 0.159,-0.071 0.136,-0.357 0.961,-2.154 1.941,-2.171 0.32,-0.006 1.015,0.036 1.293,0.764 0.09,0.209 0.331,0.703 0.027,0.603 -0.18,-0.069 -0.699,-0.237 -1.153,0.178 -0.174,0.146 -0.456,0.33 -0.59,0.774 -0.017,0.142 -0.153,0.59 0.27,0.247 0.088,-0.09 0.523,-0.703 1.155,-0.094 0.172,0.201 0.622,0.578 1.005,1.589 h -0.002 c 0.186,0.487 0.349,1.119 0.465,1.948 0.025,0.408 0.424,2.981 1.08,3.841 0.201,0.297 0.747,1.001 0.835,1.053 0.088,0.052 0.326,0.172 0.144,-0.111 l -0.477,-0.703 c -0.036,-0.088 -0.218,-0.283 0.207,-0.448 0.425,-0.165 0.881,-0.39 2.254,-0.287 l 0.926,0.019 c 0.071,-0.019 0.301,-0.08 -0.005,-0.124 l -1.906,-0.343 c -0.413,-0.046 -1.409,-0.027 -1.531,-0.006 -0.122,0.021 -0.334,0.113 -0.393,-0.117 -0.059,-0.235 -0.521,-1.344 0.117,-3.492 0.09,-0.178 0.375,-0.667 0.249,-1.239 -0.014,-0.071 -0.033,-0.138 -0.063,-0.205 -0.259,-0.655 -0.592,-1.379 -0.596,-1.628 -0.004,-0.249 -0.119,-0.815 1.063,-1.21 l 5.363,-1.57 c 0.232,-0.038 0.425,-0.167 0.584,-0.402 0.159,-0.235 0.588,-0.739 1.306,-0.414 0.324,0.138 0.898,0.448 1.025,0.519 0.127,0.071 0.499,0.132 0.174,-0.076 -0.086,-0.071 -0.379,-0.42 -0.437,-0.703 -0.058,-0.283 -0.136,-0.659 -0.212,-0.762 -0.035,-0.054 -0.18,-0.276 -0.211,-0.427 l -17.923,-7.359 c -0.21,0.214 -0.729,0.626 -1.344,0.777 -0.178,0.075 -0.797,0.154 -0.94,0.123 -0.109,-0.017 -0.393,0.023 -0.14,0.182 m -40.895,31.399 c 0.178,0.217 0.172,0.305 0.172,0.347 a 21.99,21.99 0 0 1 0.006,0.804 c -0.002,0.247 0.199,0.347 0.27,0.4 0.178,0.136 0.126,-0.22 0.126,-0.256 l -0.042,-0.954 c 0.004,-0.375 -0.065,-0.626 -0.073,-0.718 -0.011,-0.086 -0.275,-0.115 -0.346,-0.199 -0.071,-0.084 -0.561,-0.465 -0.904,-0.741 -0.343,-0.276 -0.477,-0.287 -0.733,-0.308 -0.256,-0.021 -0.069,0.149 -0.05,0.176 0.019,0.027 0.216,0.214 0.429,0.421 l 1.145,1.028 m -1.902,2.829 c 0.19,0.107 0.531,0.465 0.531,0.465 0.159,0.153 0.285,0.09 0.364,0.019 0.203,-0.159 0.203,-0.664 0.214,-1.003 0.013,-0.332 -0.098,-0.144 -0.13,-0.109 -0.084,0.114 -0.312,0.367 -0.381,0.448 -0.178,0.222 -0.41,0.116 -0.487,0.084 -0.383,-0.192 -0.235,-0.04 -0.111,0.096 m -1.336,-1.157 c 0.013,0.251 0.161,0.033 0.203,-0.036 0.086,-0.19 0.281,-0.366 0.281,-0.366 0.343,-0.437 0.615,0.258 0.651,0.341 0.088,0.172 0.119,0.048 0.127,-0.019 0.008,-0.067 0.002,-0.309 0.009,-0.517 -0.025,-0.406 0.153,-0.184 0.255,-0.117 0.193,0.134 0.482,-0.06 0.685,-0.148 0.203,-0.088 0.305,-0.283 0.399,-0.36 a 1.05,1.05 0 0 1 -0.573,0.052 c -0.4,-0.036 -0.791,-0.373 -0.86,-0.421 -0.637,-0.316 -0.97,0.239 -1.011,0.302 -0.287,0.408 -0.18,1.044 -0.166,1.289 m -1.601,2.955 a 0.73,0.73 0 0 1 0.356,0.18 h 0.006 l 0.044,0.055 c 0.105,0.109 0.178,0.056 0.237,-0.017 l 0.081,-0.136 c 0.115,-0.224 0.128,-0.578 0.128,-0.578 0.063,-0.837 -0.128,-0.496 -0.17,-0.462 -0.127,0.159 -0.452,0.431 -0.517,0.508 -0.23,0.212 -0.454,0.153 -0.6,0.113 l -0.103,0.036 c 0.078,0.147 0.272,0.237 0.538,0.301 m -1.011,-1.737 c 0.264,-0.142 0.456,-0.368 0.49,-0.569 0.034,-0.201 0.117,-0.147 0.188,-0.071 0.071,0.076 0.226,0.194 0.406,0.173 0,-0.052 0.002,-0.249 0.036,-0.395 0.048,-0.268 0.67,-0.126 0.67,-0.126 0.439,0.082 0.194,-0.165 0.15,-0.217 -0.169,-0.331 -0.454,-0.386 -0.636,-0.45 -0.521,-0.266 -1.038,0.15 -1.132,0.196 -0.247,0.128 -0.182,0.425 -0.203,0.607 -0.059,0.542 -0.501,0.911 -0.534,1.057 0.163,0 0.419,-0.125 0.565,-0.205 m 2.491,-4.215 c -0.011,-0.044 -0.055,-0.13 -0.281,-0.143 -0.113,-0.031 -0.575,-0.136 -0.785,-0.106 -0.031,0.01 -0.171,-0.04 -0.029,0.213 0.046,0.078 0.082,0.207 0.109,0.251 0.027,0.044 -0.023,0.13 0.343,0.009 l 0.643,-0.224 m -1.501,0.351 c 0,0 -0.071,-0.136 -0.09,-0.219 -0.056,-0.252 -0.218,-0.111 -0.266,-0.076 -0.111,0.071 -0.263,0.335 -0.36,0.584 l -0.224,0.488 c -0.006,0.056 0.256,-0.015 0.377,-0.096 0.121,-0.081 0.312,-0.314 0.467,-0.421 0.155,-0.107 0.096,-0.26 0.096,-0.26 m -2.654,4.796 c 0.18,0.257 0.553,0.517 0.676,0.634 0.123,0.117 0.13,-0.074 0.126,-0.193 -0.004,-0.119 -0.059,-0.282 -0.084,-0.391 -0.029,-0.115 -0.406,-0.519 -0.406,-0.519 -0.174,-0.159 -0.295,-0.641 -0.314,-0.812 -0.019,-0.171 0.123,-1.3 0.163,-1.612 0.04,-0.312 -0.127,-0.241 -0.222,-0.22 -0.102,0.019 -0.155,0.373 -0.19,0.442 -0.157,0.339 -0.147,0.965 -0.157,1.413 -0.01,0.448 0.234,1.002 0.408,1.258 m -0.613,-6.803 c 0.017,0.49 0.259,0.71 0.341,0.804 0.216,0.186 0.109,0.418 0.036,0.523 -0.078,0.103 -0.16,0.289 -0.204,0.383 -0.127,0.456 0.222,0.762 0.31,0.871 0.283,0.441 0.768,0.728 0.871,0.76 0.103,0.032 0.182,-0.019 0.226,-0.055 0.067,-0.079 -0.1,-0.215 -0.153,-0.266 l -0.404,-0.395 c -0.132,-0.153 -0.245,-0.316 -0.291,-0.477 -0.119,-0.444 0.283,-0.601 0.53,-0.725 0.247,-0.124 0.576,-0.519 0.751,-0.751 0.159,-0.209 0.002,-0.862 0.002,-0.862 l -0.016,-0.061 c -0.055,-0.178 -0.362,-0.463 -0.672,-0.898 -0.31,-0.435 -0.293,-0.762 -0.302,-0.978 0.011,-0.479 0.216,-0.138 0.235,-0.09 0.025,0.067 0.201,0.325 0.328,0.597 0.122,0.276 0.863,1.197 0.942,1.291 0.048,0.044 0.12,0.128 0.12,0.128 0.125,0.214 0.06,0.396 0.054,0.479 -0.013,0.193 0.029,0.252 0.128,0.293 0.094,0.042 0.282,-0.075 0.433,-0.152 0.151,-0.077 0.701,-0.3 1.015,-0.406 0.762,-0.237 0.906,-0.009 0.978,0.058 0.165,0.143 0.23,0.892 0.23,0.892 0.019,0.171 0.048,0.377 0.119,0.513 0.071,0.136 0.207,-0.002 0.23,-0.03 0.023,-0.028 0.007,-0.196 0.013,-0.36 0.006,-0.164 -0.015,-0.466 -0.031,-0.749 -0.007,-0.195 -0.088,-0.383 -0.164,-0.521 l -0.088,-0.163 c -0.159,-0.281 -0.523,-0.388 -0.667,-0.4 -0.254,-0.03 -0.559,0.119 -0.672,0.132 -0.113,0.013 0.042,-0.138 0.136,-0.237 0.09,-0.092 0.01,-0.333 -0.027,-0.479 -0.037,-0.146 -0.233,-0.419 -0.505,-0.791 -0.272,-0.372 -0.674,-0.153 -0.768,-0.107 -0.169,0.107 -0.471,0.161 -0.599,0.165 -0.128,0.004 -0.108,0.103 0.057,0.333 0.096,0.008 0.274,-0.048 0.55,-0.096 0.276,-0.048 0.442,0.096 0.501,0.155 0.059,0.059 0.203,0.351 0.259,0.471 0.097,0.205 -0.048,0.265 -0.228,0.295 -0.18,0.03 -0.534,-0.059 -0.674,-0.117 -0.372,-0.13 -0.785,-0.664 -1.026,-1.083 -0.241,-0.419 -0.244,-0.82 -0.236,-1.251 0.008,-0.431 -0.09,-0.316 -0.142,-0.31 -0.052,0.006 -0.436,0.36 -0.578,0.511 -0.479,0.466 -0.444,1.092 -0.421,1.392 0.023,0.3 0.507,0.964 0.551,1.065 0.146,0.195 0.113,0.534 0.113,0.534 -0.03,0.106 -0.084,0.194 -0.126,0.249 a 0.77,0.77 0 0 1 -0.45,0.24 c -0.146,0.013 -0.27,-0.307 -0.316,-0.491 l -0.012,-0.051 c -0.065,-0.328 0.276,-0.487 0.353,-0.542 0.077,-0.055 -0.123,-0.048 -0.201,-0.029 -0.1,0.036 -0.291,0.048 -0.366,0.065 -0.092,0.025 -0.1,0.31 -0.092,0.519 l 0.019,0.205 m 2.84,-8.827 c 0.059,-0.45 -0.094,-0.154 -0.159,-0.073 l -0.783,0.856 c -0.55,0.668 -0.561,1.419 -0.534,1.547 0.017,0.209 0.137,0.006 0.21,-0.107 0.165,-0.236 0.464,-0.399 0.464,-0.399 0.22,-0.143 0.373,0.337 0.471,0.789 l 0.078,0.399 c 0.086,0.482 0.504,1.98 0.582,2.449 0.078,0.469 0.144,-0.037 0.176,-0.15 0.032,-0.113 0.092,-0.664 0.117,-0.99 0.023,-0.245 -0.136,-1.022 -0.304,-1.708 l -0.15,-0.595 c -0.203,-0.76 -0.231,-1.565 -0.168,-2.018 m -4.065,2.613 c 0.061,0.14 0.159,0.002 0.159,0.002 a 0.7,0.7 0 0 0 0.053,-0.168 c 0.019,-0.27 0.211,-0.722 0.307,-0.925 0.126,-0.483 0.427,0.059 0.486,0.136 0.224,0.235 0.412,0.649 0.525,0.955 l 0.105,0.337 c 0.272,0.927 0.643,1.54 0.643,1.54 l 0.297,0.339 c 0.115,0.134 0.042,-0.178 0.05,-0.504 a 6.65,6.65 0 0 0 -0.193,-1.244 c -0.031,-0.154 -0.087,-0.313 -0.148,-0.468 -0.249,-0.612 -0.668,-1.172 -0.814,-1.422 -0.185,-0.311 -0.831,-1.176 -0.957,-1.408 -0.199,-0.392 -0.192,-0.086 -0.192,-0.009 0,0.077 -0.051,0.237 -0.124,0.586 l -0.295,1.217 c -0.067,0.642 0.04,0.843 0.075,0.977 0.007,0.023 0.013,0.042 0.023,0.059 m -3.512,1.842 c 0.052,1.659 1.348,2.084 1.348,2.084 0.62,0.26 0.121,-0.224 0.063,-0.301 -0.63,-0.685 -0.607,-1.237 -0.574,-1.394 0.03,-0.18 0.574,0.203 0.676,0.28 1.089,0.612 2.456,2.393 2.615,2.602 0.159,0.209 0.088,-0.205 0.062,-0.393 -0.026,-0.188 -0.188,-0.446 -0.246,-0.568 -0.356,-0.678 -1.681,-1.867 -1.943,-2.074 -0.262,-0.207 -0.14,-0.347 -0.052,-0.452 0.119,-0.18 0.169,-0.542 0.222,-0.787 0.071,-0.473 0.301,-0.153 0.379,-0.107 0.33,0.207 0.985,1.16 1.31,1.647 0.32,0.49 0.986,0.614 1.076,0.645 0.383,0.094 0.134,-0.079 0.088,-0.136 -0.082,-0.111 -0.262,-0.188 -0.377,-0.285 -0.23,-0.234 -0.886,-1.297 -1.371,-2.007 a 2.01,2.01 0 0 0 -0.584,-0.594 v -0.002 c -0.237,-0.141 -0.425,-0.164 -0.53,-0.193 l -1.542,-0.356 c -0.35,-0.086 -0.101,0.126 0.002,0.168 0.125,0.069 0.322,0.247 0.467,0.381 h 0.004 l 0.142,0.136 c 0.62,0.628 0.515,1.078 0.519,1.417 0.004,0.339 -0.197,0.215 -0.197,0.215 0,0 -0.215,-0.127 -0.305,-0.207 -0.649,-0.481 -0.724,-0.929 -0.754,-1.187 -0.042,-0.515 -0.213,-0.132 -0.255,-0.075 -0.337,0.601 -0.247,1.455 -0.243,1.543 m -15.543,-8.23 c -0.107,-0.061 -0.297,-0.442 -0.297,-0.442 -0.028,-0.055 -0.153,-0.235 -0.298,-0.387 -0.067,-0.074 -0.165,-0.074 -0.255,-0.051 l -0.165,0.07 c -0.03,0.014 -0.055,0.031 -0.067,0.041 -0.078,0.063 -0.055,0.191 -0.036,0.266 0.019,0.075 0.291,0.306 0.417,0.48 0.126,0.174 0.707,0.232 0.814,0.236 0.107,0.004 0.134,-0.044 0.134,-0.063 0,-0.019 -0.157,-0.104 -0.247,-0.15 m 1.771,-0.616 c -0.028,-0.061 -0.139,-0.165 -0.243,-0.272 l -0.563,-0.571 c -0.178,-0.189 -0.346,0.004 -0.377,0.039 -0.075,0.07 -0.027,0.137 -0.015,0.168 0.012,0.031 0.086,0.1 0.222,0.301 0.143,0.203 0.578,0.413 0.578,0.413 a 2.5,2.5 0 0 0 0.36,0.121 c 0.121,0.023 0.065,-0.138 0.038,-0.199 m 15.497,-6.516 c -0.134,-0.075 -0.396,-0.406 -0.668,-0.674 -0.272,-0.268 -0.318,-0.006 -0.395,0.03 -0.147,0.081 -0.201,0.169 -0.166,0.253 0.035,0.084 0.297,0.35 0.41,0.456 0.141,0.164 0.729,0.283 0.729,0.283 0.647,0.029 0.22,-0.272 0.09,-0.348 m 2.248,-0.845 c -0.088,-0.069 -0.293,-0.436 -0.44,-0.563 -0.272,-0.254 -0.718,-0.245 -0.787,-0.184 -0.178,0.134 -0.09,0.228 -0.065,0.27 0.025,0.042 0.061,0.119 0.226,0.305 0.17,0.184 0.689,0.408 0.689,0.408 1.063,0.239 0.465,-0.171 0.377,-0.236 m -0.997,1.745 c -0.376,0.093 -2.019,0.482 -2.568,0.492 -0.207,0.019 -0.931,0.017 -1.333,-0.284 -0.402,-0.301 -0.661,-0.49 -0.701,-0.835 0.004,-0.017 0.09,-0.082 0.238,-0.181 l -10.605,4.354 c 0.081,0.069 0.192,0.463 0.146,0.67 -0.046,0.207 -0.45,0.885 -0.188,1.139 0.088,0.119 0.195,0.272 0.659,0.177 0.136,-0.018 2.127,-0.263 3.376,0.302 0.224,0.1 0.727,0.299 1.34,0.804 0.102,0.065 0.278,0.186 0.502,0.215 0.136,0.013 0.396,0.147 0.448,0.059 -0.295,-0.218 -0.889,-0.637 -1.067,-0.98 -0.071,-0.153 -0.708,-1.05 -0.967,-1.237 -0.088,-0.067 -0.279,-0.153 -0.298,-0.22 -0.019,-0.067 -0.035,-0.188 0.256,-0.175 0.291,0.013 1.151,-0.055 1.923,0.755 0.295,0.272 0.963,1.034 1.281,1.392 0.243,0.289 0.949,1.187 1.807,1.103 -0.174,-0.257 -1.541,-1.505 -1.846,-2.29 a 5.02,5.02 0 0 1 -0.327,-0.925 c -0.017,-0.067 -0.071,-0.153 -0.155,-0.184 -0.088,-0.036 -0.207,-0.048 -0.211,-0.119 -0.004,-0.071 -0.019,-0.17 0.167,-0.172 0.14,-0.023 1.572,0.057 2.181,1.578 0.055,0.153 0.84,1.842 1.465,2.125 l 0.105,0.054 c 0.241,0.128 0.628,0.308 0.76,0.293 0.071,0.015 0.171,-0.004 -0.019,-0.157 -0.019,-0.014 -0.075,-0.065 -0.153,-0.136 -0.318,-0.295 -1.007,-0.992 -1.182,-1.542 -0.038,-0.12 -0.534,-1.026 0.211,-1.675 0.117,-0.088 0.542,-0.578 1.323,-0.178 0.069,0.053 0.171,0.153 0.035,0.293 -0.1,0.069 -0.86,0.875 -0.414,1.691 0.107,0.189 0.297,0.425 0.454,0.511 0.168,-0.245 0.703,-1.097 1.679,-0.358 0.247,0.184 0.917,0.66 1.427,1.258 h 0.009 c 0.146,0.178 0.278,0.364 0.387,0.553 0.107,0.155 0.249,0.46 0.316,0.475 0.056,0.017 0.157,-0.019 0.153,-0.191 -0.002,-0.123 0.029,-0.397 -0.174,-0.837 h -0.002 a 3.13,3.13 0 0 0 -0.364,-0.598 c -0.09,-0.137 -0.829,-1.175 -0.817,-1.432 0.017,-0.119 -0.134,-0.634 0.833,-0.567 0.26,0.033 3.682,-0.009 5.235,0.205 0.36,0.008 4.101,0.303 5.656,-0.237 0.069,-0.019 0.153,-0.056 0.081,-0.176 -0.072,-0.12 -0.743,-2.07 -0.778,-2.153 -0.004,-0.015 -0.009,-0.028 -0.011,-0.042 h -0.002 c -0.012,-0.076 -0.014,-0.143 -0.213,-0.195 l -4.994,-1.256 -3.165,-0.992 c -0.331,-0.132 -1.007,-0.364 -1.899,-0.174 m 19.2,-10.486 -16.692,6.855 a 0.62,0.62 0 0 1 0.174,0.488 c -0.013,0.272 -0.155,0.967 0.569,0.969 l 2.173,-0.088 c 0.259,0.033 0.868,-0.099 1.245,0.571 0.088,0.122 0.147,0.4 0.496,0.48 0.243,0.064 0.479,0.167 0.71,0.173 0.127,0 0.312,0.019 0.299,-0.027 -0.278,-0.123 -0.624,-0.103 -0.998,-0.626 -0.069,-0.079 -0.75,-0.85 -0.942,-1.327 -0.059,-0.102 -0.268,-0.385 -0.272,-0.475 -0.004,-0.09 -0.072,-0.264 0.307,-0.224 0.205,0.019 0.643,0.149 0.791,0.159 0.153,0.009 0.268,-0.044 0.398,0.243 0.13,0.287 0.892,1.8 1.526,2.12 0.13,0.08 0.465,0.3 1.038,0.304 h 0.62 c -0.067,-0.065 -0.808,-0.262 -1.087,-0.521 -0.279,-0.259 -1.073,-1.083 -1.316,-1.903 -0.048,-0.128 -0.276,-0.58 -0.048,-0.779 0.054,-0.048 0.326,-0.259 0.709,0.078 0.107,0.1 0.478,0.289 0.645,0.77 0.109,0.306 0.306,0.957 0.527,1.218 0.093,0.134 0.457,0.586 0.7,0.616 0.104,0.037 0.366,0.075 0.251,-0.049 -0.115,-0.124 -0.536,-0.473 -0.599,-0.816 -0.025,-0.1 -0.326,-0.99 0.352,-1.519 0.125,-0.084 0.362,-0.268 1.065,0.108 0.117,0.055 0.14,0.078 0.339,0.12 0.126,0.042 0.23,0.042 0.197,0.236 a 0.27,0.27 0 0 1 -0.155,0.22 c -0.113,0.059 -0.536,0.228 -0.624,0.435 -0.044,0.107 -0.146,0.279 0.011,0.714 0.096,0.272 0.263,0.58 0.324,0.693 0.061,0.113 0.295,0.569 0.597,0.701 0.104,0.057 0.219,0.157 0.46,0.176 0.082,0.019 0.243,0.006 0.092,-0.107 -0.096,-0.065 -0.663,-0.435 -0.728,-0.868 -0.013,-0.151 -0.159,-0.664 0.446,-0.743 0.22,-0.013 1.017,-0.178 1.417,0.217 0.125,0.124 0.5,0.427 0.521,1.057 0.021,0.63 0.075,2.225 -0.197,3.064 l -0.121,0.39 c -0.147,0.437 -0.39,1.032 -0.833,1.429 -0.128,0.118 -0.306,0.316 -0.511,0.459 -0.067,0.046 -0.054,0.217 0.094,0.123 0.14,-0.092 1.237,-0.584 1.823,-2.011 h 0.002 l 0.097,-0.26 c 0.033,-0.081 0.265,-0.621 0.431,-2.244 0.021,-0.14 0.236,-2.183 0.567,-2.898 0.069,-0.132 0.494,-1.296 1.369,-1.805 l 1.681,-0.801 h 0.012 l 1.298,-0.729 c 0.172,-0.13 1.394,-1.013 1.459,-1.781 0.023,-0.082 0.253,-0.695 0.002,-1.147 -0.036,-0.069 -0.084,-0.251 -0.45,-0.245 -0.366,0.006 -1.281,0.113 -1.737,-0.427 -0.074,-0.079 -0.375,-0.328 -0.53,-0.749 m 3.01,0.067 c -0.094,-0.101 -0.412,-0.561 -0.561,-0.703 -0.241,-0.331 -0.257,-0.256 -0.331,-0.237 -0.074,0.019 -0.27,0.163 -0.32,0.209 -0.188,0.13 -0.061,0.281 -0.025,0.331 l 0.195,0.245 c 0.14,0.172 0.676,0.349 0.676,0.349 0.778,0.222 0.462,-0.094 0.366,-0.194 m 2.141,-0.708 c -0.176,-0.136 -0.364,-0.596 -0.49,-0.845 -0.126,-0.249 -0.102,-0.27 -0.194,-0.295 -0.122,-0.04 -0.387,0.144 -0.498,0.215 -0.111,0.071 -0.061,0.191 -0.034,0.258 0.027,0.067 0.209,0.33 0.308,0.483 0.099,0.153 0.816,0.477 0.816,0.477 0.519,0.095 0.17,-0.201 0.092,-0.293 m -34.111,-44.532 c -0.109,-0.021 -0.406,-0.168 -0.452,0.433 a 2.84,2.84 0 0 0 0.14,1.122 l 0.515,0.95 c 0.071,0.053 0.224,0.27 0.389,0.042 0.165,-0.228 0.457,-0.791 0.484,-1.287 0.04,-0.159 0.22,-0.473 -0.341,-0.875 -0.26,-0.199 -0.526,-0.362 -0.735,-0.385 m 1.348,-3.939 c -0.048,-0.266 -0.195,-0.126 -0.301,-0.095 -0.143,0.034 -0.205,0.532 -0.205,0.532 0.169,0.429 0.351,0.289 0.462,0.201 0.178,-0.172 0.078,-0.44 0.044,-0.638 m 12.533,0.201 c -0.188,-0.017 -1.144,0.083 -1.404,0.104 -1.81,0.119 -2.79,2.242 -2.79,2.242 -0.421,1.17 0.063,0.603 0.119,0.485 0.063,-0.119 0.915,-0.881 1.045,-1.031 1.584,-1.449 2.683,-1.547 2.955,-1.579 0.626,-0.108 0.205,-0.221 0.075,-0.221 m 11.904,-7.873 a 1.08,1.08 0 0 1 -0.588,0.206 c -0.484,0.046 -1.059,-0.515 -1.128,-0.622 -0.212,-0.201 -0.162,0.063 -0.162,0.063 l 0.22,0.577 c 0.084,0.337 0.339,0.877 0.408,1.055 0.312,0.578 -0.025,0.48 -0.169,0.532 -0.178,0.052 -0.394,0.224 -0.54,0.362 -0.773,0.523 -0.942,1.961 -1.074,2.529 -0.132,0.568 -0.157,0.797 -0.306,1.167 -0.59,1.183 -0.82,3.048 -0.898,3.561 -0.133,0.732 -0.477,1.858 -0.477,1.858 -0.732,2.294 -1.63,2.638 -1.773,2.749 -1.136,0.709 -2.53,0.077 -2.813,-0.053 -0.282,-0.125 -0.161,0.124 -0.111,0.18 l 0.44,0.45 c 0.596,0.545 2.039,0.321 2.539,0.187 0.5,-0.134 0.479,0.186 0.565,0.385 0.222,0.41 0.071,2.137 0.042,2.74 -0.029,0.603 0.153,0.412 0.203,0.412 0.056,0.002 0.305,-0.086 0.504,-0.151 0.697,-0.272 0.733,-1.195 0.752,-1.446 0.019,-0.251 0.182,-0.157 0.253,-0.138 0.071,0.019 0.247,0.201 0.402,0.414 0.494,0.85 -0.379,2.001 -0.549,2.28 h -0.004 c -0.32,0.676 0.063,0.295 0.17,0.171 l 0.146,-0.171 h 0.009 c 0.201,-0.229 0.556,-0.612 0.931,-0.894 0.507,-0.383 1.304,-0.228 1.8,-0.166 0.978,0.126 0.122,0.375 -0.274,0.549 -0.193,0.079 -0.465,0.28 -0.705,0.511 -0.258,0.236 -0.478,0.502 -0.545,0.692 -0.129,0.371 0.105,0.199 0.105,0.199 0,0 0.249,-0.14 0.463,-0.188 0.573,-0.201 1.603,-0.042 1.94,0.052 0.337,0.094 0.408,0.042 0.429,-0.01 0.015,-0.053 0.291,-0.812 0.291,-0.812 l 0.006,-0.021 c 0.132,-0.423 1.447,-3.266 1.612,-3.6 0.165,-0.334 0.236,-0.476 0.276,-0.656 -0.027,-0.462 0.032,-1.867 0.109,-2.185 0.077,-0.318 0.306,-0.136 0.429,-0.025 0.123,0.111 0.49,0.45 0.63,0.649 0.207,0.272 0.23,0.057 0.178,0.006 -0.052,-0.056 -0.119,-0.324 -0.153,-0.466 -0.1,-0.413 0.36,-1.367 0.49,-1.629 l 0.011,-0.019 0.282,-0.653 z m 6.275,15.284 c -0.142,0.011 -0.425,-0.174 -0.486,-0.215 -0.106,-0.076 -0.481,-0.153 -0.764,-0.212 -0.283,-0.059 -0.634,-0.347 -0.703,-0.437 -0.207,-0.325 -0.142,0.048 -0.073,0.176 l 0.515,1.023 c 0.324,0.718 -0.182,1.155 -0.415,1.31 -0.233,0.155 -0.36,0.352 -0.399,0.582 -0.017,0.09 -0.237,0.856 -0.509,1.786 l -1.065,3.577 c -0.394,1.184 -0.959,1.067 -1.208,1.063 -0.249,-0.004 -0.973,-0.337 -1.626,-0.597 -0.653,-0.26 -1.248,0.084 -1.447,0.185 -2.147,0.64 -3.259,0.175 -3.489,0.121 -0.23,-0.054 -0.136,-0.272 -0.117,-0.396 0.019,-0.124 0.04,-1.119 -0.011,-1.532 -0.044,-0.408 -0.291,-1.605 -0.339,-1.907 -0.048,-0.302 -0.104,-0.075 -0.123,-0.002 -0.019,0.073 0.025,0.622 0.019,0.923 0.1,1.371 -0.12,1.834 -0.289,2.255 -0.169,0.421 -0.36,0.247 -0.448,0.207 -0.088,-0.04 -0.421,-0.291 -0.703,-0.473 -0.282,-0.182 -0.162,0.048 -0.109,0.14 0.053,0.092 0.753,0.636 1.053,0.837 0.86,0.653 3.434,1.053 3.842,1.08 2.556,0.346 3.234,1.212 3.534,1.466 0.477,0.496 -0.08,1.144 -0.09,1.157 -0.348,0.421 0.1,0.285 0.24,0.27 0.287,-0.086 0.467,-0.23 0.597,-0.381 h 0.004 l 0.176,-0.209 c 0.418,-0.459 0.249,-0.973 0.182,-1.156 -0.105,-0.303 0.391,-0.064 0.603,0.03 0.722,0.278 0.764,0.973 0.76,1.293 v 0.042 c -0.07,0.961 -1.817,1.762 -2.171,1.896 -0.354,0.134 -0.071,0.157 -0.071,0.157 0,0 0.32,-0.008 0.552,-0.06 a 7.06,7.06 0 0 0 1.43,-0.49 c 0.594,-0.276 1.566,0.061 1.94,0.14 l 1.382,0.343 c 0.638,0.101 0.188,0.308 0.1,0.396 -0.653,0.538 -2.378,0.544 -2.662,0.574 -0.802,0.077 -1.074,0.372 -1.166,0.46 -0.308,0.19 -0.073,0.159 -0.002,0.161 0.249,0.004 0.605,-0.167 0.839,-0.251 0.484,-0.205 1.191,0.126 1.472,0.255 0.281,0.129 1.182,0.662 1.484,0.792 0.598,0.244 0.221,0.324 0.1,0.376 -0.128,0.048 -0.576,0.185 -0.753,0.233 -1.66,0.259 -3.437,-0.716 -3.582,-0.771 -0.475,-0.24 -0.196,0.032 -0.073,0.159 0.626,0.863 2.33,1.248 2.631,1.292 0.301,0.038 0.44,0.132 0.492,0.184 0.052,0.052 0.473,0.433 0.737,0.655 0.596,0.54 3.407,1.447 4.012,1.65 0.601,0.209 0.999,-0.245 1.235,-0.492 0.324,-0.314 0.519,-0.134 0.643,-0.078 0.332,0.184 0.433,0.561 0.538,0.758 0.154,0.251 0.194,-0.031 0.177,-0.138 -0.031,-0.145 0.051,-0.766 0.124,-0.944 a 3.09,3.09 0 0 1 0.823,-1.386 z m 29.646,-2.773 c -0.043,-0.025 -0.054,-0.032 -0.186,0.148 -0.063,0.067 -0.299,0.285 -0.046,0.557 0.13,0.149 0.643,0.498 0.71,0.586 0.067,0.088 0.477,0.689 0.236,-0.376 0,0 -0.224,-0.52 -0.408,-0.685 -0.184,-0.165 -0.264,-0.203 -0.306,-0.23 m 0.934,-2.185 c -0.088,-0.036 -0.195,0.035 -0.276,0.182 -0.034,0.077 -0.178,0.213 0.094,0.481 0.27,0.274 0.498,0.433 0.571,0.563 l 0.038,0.061 h 0.002 c 0.094,0.142 0.289,0.364 0.308,0.002 v -0.151 c 0,0 -0.122,-0.586 -0.279,-0.726 -0.111,-0.113 -0.374,-0.377 -0.458,-0.412 m 6.352,-15.594 c -0.041,-0.019 -0.104,0.042 -0.192,0.136 -0.046,0.042 -0.145,0.295 0.092,0.523 l 0.461,0.453 c 0.136,0.131 0.267,0.274 0.347,0.305 0.077,0.04 0.283,0.111 0.249,-0.046 -0.034,-0.157 -0.14,-0.425 -0.157,-0.456 0,0 -0.264,-0.559 -0.517,-0.733 l -0.283,-0.182 m 1.459,-1.725 c -0.219,-0.159 -0.282,-0.33 -0.376,-0.355 -0.094,-0.025 -0.325,-0.084 -0.354,0.046 -0.057,0.268 -0.272,0.454 -0.078,0.638 0.194,0.184 0.206,0.151 0.273,0.186 0,0 0.487,0.239 0.565,0.379 0.054,0.115 0.165,0.314 0.19,0.314 0.025,0 0.086,-0.031 0.082,-0.172 -0.004,-0.141 -0.082,-0.877 -0.302,-1.036 m 11.213,20.952 c -0.195,-0.146 -1.716,-1.312 -2.434,-2.344 h -0.002 l -0.166,-0.27 c -0.079,-0.105 -0.46,-0.647 -0.282,-0.678 0.159,-0.032 0.709,-0.055 1.394,0.573 0.077,0.059 0.561,0.559 0.301,-0.06 0,0 -0.425,-1.298 -2.085,-1.35 -0.087,-0.003 -0.941,-0.095 -1.54,0.242 -0.059,0.042 -0.442,0.216 0.073,0.258 0.258,0.029 0.706,0.104 1.189,0.751 a 3.28,3.28 0 0 1 0.207,0.306 c 0,0 0.12,0.205 -0.217,0.197 -0.337,-0.008 -0.789,0.102 -1.415,-0.515 -0.101,-0.118 -0.421,-0.434 -0.519,-0.616 -0.042,-0.1 -0.252,-0.353 -0.166,-0.004 l 0.266,1.164 h 0.002 l 0.088,0.381 c 0.052,0.18 0.073,0.628 0.787,1.115 l 2.007,1.367 c 0.099,0.115 0.172,0.297 0.283,0.377 0.059,0.046 0.234,0.295 0.14,-0.088 -0.033,-0.09 -0.157,-0.756 -0.647,-1.076 -0.485,-0.324 -1.442,-0.979 -1.647,-1.31 -0.044,-0.077 -0.366,-0.308 0.107,-0.379 0.247,-0.052 0.607,-0.102 0.789,-0.222 0.105,-0.088 0.241,-0.207 0.45,0.053 0.209,0.26 1.396,1.586 2.076,1.946 0.122,0.059 0.377,0.216 0.563,0.243 0.193,0.025 0.607,0.1 0.398,-0.061 m 8.213,4.747 c 0,0 0.35,-0.008 0.576,-0.125 0.105,-0.069 0.322,-0.159 0.153,-0.318 -0.061,-0.053 -0.168,-0.141 -0.233,-0.411 -0.065,-0.263 -0.157,-0.456 -0.301,-0.538 l -0.036,0.105 c 0.038,0.147 0.097,0.373 -0.115,0.601 -0.077,0.067 -0.349,0.389 -0.508,0.515 -0.036,0.042 -0.373,0.236 0.464,0.171 m -0.263,-2.809 c 0.113,0.028 0.274,0.084 0.395,0.084 0.121,0 0.31,-0.002 0.191,-0.125 -0.119,-0.123 -0.379,-0.497 -0.632,-0.674 -0.253,-0.177 -0.81,-0.417 -1.258,-0.409 -0.448,0.008 -1.078,0 -1.415,0.155 -0.067,0.036 -0.421,0.09 -0.442,0.191 -0.019,0.094 -0.09,0.257 0.222,0.222 l 1.612,-0.164 c 0.169,0.021 0.648,0.141 0.81,0.316 0,0 0.406,0.379 0.517,0.404 m -1.558,6.005 c 0.337,-0.014 0.842,-0.014 1.003,-0.215 0.067,-0.078 0.132,-0.203 -0.021,-0.364 0,0 -0.356,-0.339 -0.463,-0.53 -0.136,-0.123 -0.288,-0.274 -0.098,0.109 0.034,0.077 0.14,0.312 -0.084,0.49 l -0.448,0.377 c -0.035,0.035 -0.226,0.142 0.111,0.133 m -0.408,-3.269 c 0,0 -0.142,-0.619 0.124,-0.668 a 1.94,1.94 0 0 1 0.395,-0.037 c 0.023,-0.18 -0.098,-0.337 -0.171,-0.408 -0.08,-0.072 -0.128,-0.155 0.071,-0.189 0.197,-0.027 0.425,-0.222 0.567,-0.485 l 0.111,-0.231 h 0.002 c 0.065,-0.159 0.094,-0.257 0.094,-0.335 -0.088,0.021 -0.259,0.189 -0.5,0.331 h -0.008 0.008 c -0.157,0.094 -0.343,0.18 -0.557,0.203 -0.182,0.021 -0.483,-0.046 -0.607,0.203 -0.044,0.094 -0.467,0.611 -0.201,1.133 0.065,0.182 0.124,0.466 0.454,0.636 0.053,0.042 0.296,0.287 0.218,-0.153 m -0.293,1.957 c -0.084,-0.038 -0.778,-0.308 -0.339,-0.651 0,0 0.174,-0.194 0.366,-0.276 0.067,-0.042 0.285,-0.195 0.036,-0.207 -0.249,-0.012 -0.881,-0.12 -1.291,0.165 -0.061,0.042 -0.62,0.377 -0.306,1.009 0.052,0.071 0.389,0.465 0.429,0.862 a 1.09,1.09 0 0 1 -0.054,0.576 c 0.077,-0.094 0.267,-0.197 0.36,-0.4 0.093,-0.203 0.28,-0.494 0.148,-0.684 -0.069,-0.105 -0.289,-0.283 0.117,-0.256 l 0.515,-0.01 c 0.069,-0.006 0.189,-0.04 0.019,-0.128 m -2.924,1.312 0.569,0.714 0.003,0.007 a 1.45,1.45 0 0 0 0.165,0.184 c 0.086,0.071 0.113,0.335 0.201,0.347 0.088,0.012 0.341,0.076 0.718,0.071 l 0.952,0.042 c 0.036,0.004 0.394,0.053 0.258,-0.125 -0.053,-0.072 -0.153,-0.272 -0.4,-0.27 -0.247,0.002 -0.762,-0.002 -0.804,-0.002 -0.042,-0.005 -0.134,0.006 -0.347,-0.172 l -0.076,-0.075 h -0.004 c -0.26,-0.26 -0.766,-0.884 -0.95,-1.074 l -0.421,-0.429 c -0.023,-0.017 -0.199,-0.203 -0.176,0.052 0.023,0.255 0.04,0.383 0.312,0.73 m 0.119,-4.156 c 0.084,0.016 0.222,0.088 0.222,0.088 0,0 0.151,0.056 0.26,-0.097 0.109,-0.153 0.343,-0.347 0.421,-0.466 0.078,-0.119 0.152,-0.384 0.094,-0.377 -0.058,0.007 -0.237,0.127 -0.486,0.224 -0.249,0.097 -0.513,0.249 -0.584,0.36 -0.035,0.052 -0.176,0.213 0.073,0.268 m -0.163,0.496 c -0.259,-0.143 -0.207,-0.002 -0.218,0.029 -0.027,0.207 0.076,0.672 0.109,0.785 0.013,0.224 0.097,0.27 0.138,0.278 0.076,-0.255 0.229,-0.64 0.229,-0.64 0.119,-0.371 0.031,-0.318 -0.011,-0.346 -0.042,-0.028 -0.171,-0.064 -0.247,-0.106 m -3.73,-1.771 0.224,0.14 h 0.004 c 0.367,0.245 0.746,0.582 0.856,0.888 0.059,0.138 0.147,0.492 0.118,0.674 -0.029,0.182 -0.092,0.324 -0.3,0.226 -0.115,-0.055 -0.408,-0.197 -0.466,-0.26 a 0.55,0.55 0 0 1 -0.155,-0.498 l 0.096,-0.553 c -0.23,-0.165 -0.333,-0.184 -0.337,-0.054 -0.004,0.13 -0.059,0.427 -0.161,0.596 -0.046,0.095 -0.27,0.497 0.107,0.769 0.372,0.272 0.644,0.466 0.787,0.506 0.143,0.04 0.387,0.117 0.483,0.025 0.096,-0.092 0.247,-0.245 0.235,-0.132 -0.012,0.113 -0.164,0.415 -0.134,0.666 0.016,0.149 0.123,0.511 0.401,0.67 0.137,0.077 0.404,0.241 0.685,0.253 l 0.749,0.029 c 0.163,-0.006 0.335,0.017 0.36,-0.008 0.025,-0.025 0.166,-0.163 0.03,-0.234 -0.136,-0.071 -0.34,-0.101 -0.513,-0.122 0,0 -0.75,-0.065 -0.892,-0.228 -0.065,-0.073 -0.295,-0.211 -0.059,-0.973 0.107,-0.318 0.325,-0.863 0.404,-1.02 0.079,-0.157 0.197,-0.341 0.155,-0.435 -0.042,-0.094 -0.1,-0.138 -0.293,-0.125 -0.098,0.006 -0.351,0.106 -0.605,-0.176 -0.048,-0.038 -0.33,-0.266 -0.747,-0.534 0,0 -0.427,-0.354 -0.544,-0.406 -0.272,-0.124 -0.53,-0.304 -0.597,-0.329 -0.052,-0.019 -0.393,-0.224 0.09,-0.23 0.214,0.004 0.543,-0.01 0.974,0.301 0.425,0.302 0.707,0.597 0.887,0.664 0,0 0.699,0.144 0.881,0.054 h 0.007 -0.009 c 0.021,-0.01 0.04,-0.021 0.057,-0.033 0.234,-0.178 0.628,-0.505 0.751,-0.752 0.128,-0.247 0.279,-0.653 0.724,-0.529 0.162,0.046 0.325,0.159 0.478,0.293 0.153,0.134 0.345,0.345 0.397,0.402 0.048,0.05 0.185,0.217 0.264,0.148 0.036,-0.041 0.088,-0.117 0.054,-0.219 a 2.16,2.16 0 0 0 -0.757,-0.877 c -0.111,-0.088 -0.413,-0.434 -0.873,-0.308 -0.094,0.042 -0.28,0.126 -0.383,0.201 -0.103,0.075 -0.337,0.182 -0.523,-0.036 -0.095,-0.077 -0.314,-0.324 -0.8,-0.341 -0.132,-0.019 -0.689,-0.054 -0.728,0.075 -0.019,0.078 -0.032,0.266 -0.065,0.371 -0.019,0.073 -0.021,0.272 0.029,0.197 0.057,-0.078 0.216,-0.419 0.54,-0.354 0.155,0.029 0.557,0.165 0.544,0.329 a 0.79,0.79 0 0 1 -0.24,0.454 c -0.13,0.09 -0.434,0.274 -0.781,0.008 -0.105,-0.044 -0.766,-0.527 -1.068,-0.55 -0.302,-0.023 -0.927,-0.059 -1.391,0.42 -0.145,0.147 -0.499,0.526 -0.509,0.578 -0.01,0.052 -0.124,0.153 0.308,0.142 0.432,-0.011 0.835,-0.002 1.251,0.237 m -6.719,0.936 c 0.45,-0.061 1.256,-0.036 2.016,0.169 0.76,0.205 1.98,0.484 2.305,0.454 l 0.99,-0.117 c 0.113,-0.033 0.617,-0.1 0.148,-0.178 -0.469,-0.078 -1.965,-0.494 -2.447,-0.578 -0.473,-0.087 -1.352,-0.257 -1.199,-0.542 0.006,-0.008 0.168,-0.309 0.408,-0.475 0.113,-0.073 0.318,-0.192 0.105,-0.209 -0.124,-0.023 -0.873,-0.013 -1.547,0.536 -0.019,0.014 -0.048,0.042 -0.084,0.075 -0.276,0.302 -0.711,0.653 -0.772,0.705 -0.08,0.065 -0.373,0.218 0.077,0.16 m -0.217,-3.552 c 0.232,0.127 1.097,0.772 1.406,0.956 0.309,0.184 1.12,0.795 1.892,0.963 0.201,0.063 0.917,0.199 1.242,0.192 0.325,-0.007 0.638,0.067 0.506,-0.046 l -0.343,-0.297 c 0,0 -0.611,-0.37 -1.538,-0.647 -0.21,-0.048 -0.947,-0.297 -1.292,-0.63 -0.077,-0.054 -0.617,-0.357 -0.136,-0.481 0.205,-0.1 0.655,-0.293 0.925,-0.312 0.124,-0.019 0.442,-0.127 0.107,-0.234 -0.136,-0.036 -0.333,-0.138 -0.975,-0.071 -0.216,0.016 -0.867,0.219 -1.221,0.293 l -0.584,0.123 c -0.077,0 -0.383,-0.008 0.011,0.191 m -4.804,9.931 c 0.109,-0.314 0.184,-0.724 0.237,-1.17 0.199,-1.764 0.006,-4.198 0,-4.485 -0.059,-0.406 -0.141,-0.934 -0.128,-1.591 h 0.002 l -0.075,-3.642 c -0.071,-0.967 0.443,-0.82 0.565,-0.833 0.257,-0.015 1.293,0.726 1.429,0.814 0.798,0.599 1.265,0.538 1.438,0.54 0.173,0.002 0.208,-0.1 0.191,-0.148 -0.017,-0.072 -0.325,-0.214 -0.477,-0.321 -0.574,-0.322 -1.093,-0.895 -1.44,-1.333 l 0.002,-0.002 -0.373,-0.484 c -0.739,-0.977 0.113,-1.513 0.358,-1.68 -0.082,-0.157 -0.322,-0.35 -0.506,-0.459 -0.821,-0.443 -1.625,0.318 -1.698,0.419 -0.136,0.136 -0.239,0.029 -0.289,-0.038 -0.402,-0.783 0.088,-1.203 0.176,-1.325 0.653,-0.741 1.553,-0.245 1.674,-0.209 0.685,0.218 1.595,1.233 1.679,1.335 0.153,0.195 0.172,0.093 0.157,0.023 0.019,-0.154 -0.23,-0.657 -0.347,-0.868 -0.283,-0.624 -1.972,-1.411 -2.125,-1.463 -0.178,-0.076 -0.337,-0.157 -0.477,-0.247 h 0.031 -0.033 c -1.061,-0.685 -1.118,-1.813 -1.101,-1.934 0.002,-0.187 0.107,-0.168 0.174,-0.168 0.067,0 0.083,0.122 0.117,0.208 0.034,0.086 0.119,0.14 0.188,0.159 0.308,0.054 0.873,0.293 0.923,0.324 0.54,0.211 1.298,0.921 1.804,1.404 h -0.002 l 0.488,0.444 a 1.22,1.22 0 0 0 -0.04,-0.448 h -0.002 c -0.178,-0.646 -0.827,-1.159 -1.059,-1.36 l -1.392,-1.279 c -0.812,-0.772 -0.743,-1.631 -0.755,-1.924 -0.012,-0.293 0.106,-0.274 0.173,-0.255 0.067,0.019 0.153,0.207 0.218,0.295 0.188,0.262 1.086,0.898 1.239,0.969 0.343,0.178 0.762,0.768 0.984,1.068 0.084,-0.053 -0.05,-0.312 -0.063,-0.45 -0.031,-0.224 -0.149,-0.4 -0.213,-0.503 -0.509,-0.611 -0.704,-1.113 -0.804,-1.341 -0.565,-1.246 -0.322,-3.24 -0.302,-3.376 0.093,-0.461 -0.06,-0.568 -0.18,-0.656 -0.253,-0.261 -0.929,0.136 -1.138,0.187 -0.209,0.051 -0.595,-0.061 -0.666,-0.132 l -4.335,10.555 c 0.086,-0.125 0.145,-0.196 0.162,-0.201 0.343,0.038 0.527,0.302 0.828,0.702 0.301,0.4 0.306,1.124 0.287,1.329 -0.004,0.278 -0.107,0.843 -0.222,1.375 h 0.002 l -0.272,1.197 a 3.2,3.2 0 0 0 0.174,1.896 c 0.08,0.195 0.942,2.989 0.994,3.167 l 1.174,4.668 h 0.009 l 0.071,0.326 c 0.065,0.241 0.153,0.193 0.237,0.228 l 2.155,0.777 c 0.118,0.071 0.153,-0.015 0.174,-0.084 m -14.281,10.482 c -0.006,0.367 0.178,0.415 0.245,0.453 0.456,0.249 1.067,0.018 1.145,-0.005 0.772,-0.067 1.655,-1.291 1.781,-1.458 0.249,-0.26 1.015,-1.895 1.363,-2.64 h 0.004 l 0.167,-0.352 c 0.507,-0.874 1.675,-1.299 1.8,-1.368 0.718,-0.331 2.763,-0.549 2.899,-0.568 1.622,-0.165 2.165,-0.397 2.246,-0.431 1.629,-0.559 2.177,-1.773 2.269,-1.923 0.092,-0.15 -0.073,-0.164 -0.123,-0.095 -0.143,0.206 -0.34,0.386 -0.457,0.509 -0.538,0.599 -1.423,0.837 -1.817,0.955 -0.843,0.272 -2.436,0.223 -3.068,0.2 -0.632,-0.023 -0.929,-0.395 -1.053,-0.525 -0.395,-0.395 -0.234,-1.197 -0.218,-1.413 0.078,-0.607 0.591,-0.46 0.744,-0.446 0.433,0.065 0.799,0.633 0.868,0.727 0.111,0.15 0.126,-0.009 0.105,-0.09 -0.021,-0.241 -0.122,-0.358 -0.176,-0.461 -0.134,-0.301 -0.588,-0.538 -0.701,-0.6 -0.113,-0.062 -0.421,-0.224 -0.693,-0.321 -0.431,-0.157 -0.607,-0.056 -0.712,-0.012 -0.207,0.09 -0.374,0.51 -0.433,0.621 -0.059,0.111 -0.153,0.149 -0.222,0.159 -0.197,0.034 -0.194,-0.071 -0.238,-0.198 -0.042,-0.197 -0.065,-0.22 -0.122,-0.337 -0.374,-0.704 -0.188,-0.944 -0.107,-1.066 0.53,-0.682 1.417,-0.377 1.522,-0.353 0.343,0.064 0.691,0.483 0.816,0.598 0.125,0.115 0.082,-0.148 0.051,-0.249 -0.03,-0.243 -0.484,-0.607 -0.622,-0.701 -0.105,-0.09 -0.276,-0.176 -0.463,-0.26 h -0.008 l -0.745,-0.265 c -0.481,-0.168 -0.67,-0.543 -0.77,-0.645 -0.337,-0.383 -0.126,-0.655 -0.08,-0.712 0.201,-0.226 0.655,0 0.781,0.046 0.82,0.243 1.645,1.043 1.905,1.321 a 1.32,1.32 0 0 1 0.167,0.253 L -68.967,9 c 0.021,-0.035 -0.004,-0.55 0,-0.619 l -0.015,-0.214 h -0.002 c -0.044,-0.446 -0.22,-0.714 -0.289,-0.824 -0.322,-0.637 -1.833,-1.399 -2.12,-1.528 -0.287,-0.129 -0.237,-0.247 -0.243,-0.396 -0.006,-0.149 -0.14,-0.586 -0.159,-0.791 -0.038,-0.379 0.134,-0.308 0.224,-0.308 0.09,0 0.373,0.214 0.477,0.272 0.477,0.191 1.246,0.869 1.323,0.942 0.523,0.375 0.507,0.718 0.626,0.999 0.046,0.012 0.025,-0.172 0.029,-0.3 -0.006,-0.23 -0.107,-0.467 -0.171,-0.709 -0.082,-0.352 -0.361,-0.408 -0.48,-0.496 -0.672,-0.381 -0.54,-0.986 -0.569,-1.246 -0.025,-0.205 0.04,-0.946 0.073,-1.614 h -0.002 l 0.013,-0.56 c -0.002,-0.723 -0.693,-0.58 -0.969,-0.568 a 0.62,0.62 0 0 1 -0.48,-0.167 l -6.85,16.68 c 0.427,0.152 0.673,0.458 0.751,0.525 0.542,0.458 0.435,1.375 0.429,1.741 m -0.913,0.377 c 0,0 -0.182,-0.538 -0.349,-0.678 l -0.337,-0.272 c -0.052,-0.036 -0.09,-0.165 -0.222,0.019 -0.044,0.052 -0.098,0.232 -0.117,0.31 -0.019,0.078 -0.207,0.186 0.123,0.422 0.147,0.151 0.605,0.469 0.708,0.565 0.103,0.096 0.412,0.413 0.194,-0.366 m -1.54,2.123 c 0.247,0.123 0.5,0.205 0.636,0.381 0.094,0.079 0.39,0.429 0.295,-0.088 0,0 -0.324,-0.72 -0.477,-0.817 l -0.555,-0.337 c -0.067,-0.025 -0.15,-0.018 -0.221,0.09 -0.015,0.023 -0.084,0.44 -0.122,0.333 0.021,0.099 0.197,0.312 0.444,0.438"
     transform="matrix(1.333333,0,0,-1.333333,258.57866,191.1477)"
     clip-path="url(#B)"
     fill="#ffffff"
     id="path10" />
</svg>
